<svg width="39" height="24" viewBox="0 0 39 24" fill="none" xmlns="http://www.w3.org/2000/svg">
<g clip-path="url(#clip0_58_7840)">
<path d="M0 0H39V24H0V0Z" fill="white"/>
<path d="M0 21.5176H39V24.0003H0V21.5176Z" fill="#CC0001"/>
<path d="M0 17.3789H39V19.8617H0V17.3789Z" fill="#CC0001"/>
<path d="M0 13.2422H39V14.8974H0V13.2422Z" fill="#CC0001"/>
<path d="M0 9.10352H39V10.7587H0V9.10352Z" fill="#CC0001"/>
<path d="M0 4.13867H39V6.62143H0V4.13867Z" fill="#CC0001"/>
<path d="M0 0H39V2.48276H0V0Z" fill="#CC0001"/>
<path d="M0 0H24.0638V15.2727H0V0Z" fill="#010066"/>
<path d="M13.7401 9.00162L11.3709 9.39251L13.2186 7.86284L11.0137 6.91427L13.3972 6.62365L12.0565 4.63676L14.2191 5.67762L14.1684 3.2832L15.4236 5.32495L16.6788 3.2832L16.6279 5.67762L18.7906 4.63689L17.4499 6.62365L19.8335 6.91427L17.6285 7.86284L19.4763 9.39251L17.1071 9.00153L17.8323 11.2847L16.0511 9.67842L15.4236 11.9902L14.7959 9.67833L13.015 11.2847L13.7401 9.00162Z" fill="#FFCC00"/>
<path d="M5.99415 7.64091C5.96335 6.08615 6.67201 4.4967 7.98226 3.61485C9.17832 2.78096 10.7108 2.55152 12.1352 2.75128C10.5104 1.91259 8.4624 1.98669 6.91146 2.95869C5.07701 4.04685 3.95643 6.25345 4.28291 8.37427C4.59893 10.7914 6.70364 12.8329 9.1368 13.0737C10.1628 13.188 11.2142 12.9798 12.1353 12.5209C10.3961 12.7771 8.46008 12.3419 7.24057 11.0143C6.3923 10.1124 5.98488 8.86517 5.99406 7.64087L5.99415 7.64091Z" fill="#FFCC00"/>
</g>
<defs>
<clipPath id="clip0_58_7840">
<rect width="39" height="24" rx="4" fill="white"/>
</clipPath>
</defs>
</svg>
