<svg width="37" height="37" viewBox="0 0 37 37" fill="none" xmlns="http://www.w3.org/2000/svg">
<g clip-path="url(#clip0_58_7831)">
<path d="M4.11111 5.13867C3.02078 5.13867 1.9751 5.57181 1.20412 6.34279C0.433134 7.11377 0 8.15945 0 9.24978L0 27.7498C0 28.8401 0.433134 29.8858 1.20412 30.6568C1.9751 31.4278 3.02078 31.8609 4.11111 31.8609H10.2778V5.13867H4.11111ZM32.8889 5.13867H26.7222V31.8609H32.8889C33.9792 31.8609 35.0249 31.4278 35.7959 30.6568C36.5669 29.8858 37 28.8401 37 27.7498V9.24978C37 8.15945 36.5669 7.11377 35.7959 6.34279C35.0249 5.57181 33.9792 5.13867 32.8889 5.13867Z" fill="#D52B1E"/>
<path d="M10.2773 5.13867H26.7218V31.8609H10.2773V5.13867Z" fill="#EEEEEE"/>
<path d="M19.1327 22.7266C20.364 22.8694 21.4679 22.9979 22.6981 23.1387L22.3846 22.1089C22.3616 22.0203 22.3647 21.9269 22.3937 21.84C22.4228 21.7532 22.4764 21.6766 22.548 21.6196L26.1237 18.7069L25.3837 18.3585C25.0579 18.2424 25.1473 18.0584 25.2655 17.6165L25.8112 15.6267L23.7341 16.0655C23.5316 16.0964 23.397 15.9679 23.3662 15.8446L23.0979 14.9083L21.4555 16.7521C21.2222 17.0481 20.7494 17.0481 20.8964 16.3656L21.5984 12.6307L20.6559 13.1189C20.3918 13.2669 20.1276 13.2916 19.9807 13.0274L18.6805 10.5957L17.3804 13.0274C17.2324 13.2916 16.9682 13.2669 16.7041 13.1189L15.7627 12.6307L16.4646 16.3656C16.6126 17.0481 16.1388 17.0481 15.9055 16.7521L14.2631 14.9093L13.9959 15.8456C13.9651 15.9689 13.8294 16.0974 13.6269 16.0666L11.5498 15.6277L12.0955 17.6175C12.2117 18.0594 12.3021 18.2434 11.9763 18.3595L11.2363 18.708L14.812 21.6207C14.9538 21.7306 15.0257 21.929 14.9744 22.1099L14.6609 23.1397L18.2273 22.7276C18.3362 22.7276 18.4082 22.7882 18.4071 22.9136L18.1872 26.7205H19.1697L18.9508 22.9136C18.9529 22.7872 19.0238 22.7266 19.1327 22.7266Z" fill="#D52B1E"/>
</g>
<defs>
<clipPath id="clip0_58_7831">
<rect width="37" height="37" fill="white"/>
</clipPath>
</defs>
</svg>
