<svg width="36" height="36" viewBox="0 0 36 36" fill="none" xmlns="http://www.w3.org/2000/svg">
<g clip-path="url(#clip0_58_7787)">
<path d="M0 27C0 28.0609 0.421427 29.0783 1.17157 29.8284C1.92172 30.5786 2.93913 31 4 31H32C33.0609 31 34.0783 30.5786 34.8284 29.8284C35.5786 29.0783 36 28.0609 36 27V22H0V27Z" fill="#138808"/>
<path d="M36 14V9C36 7.93913 35.5786 6.92172 34.8284 6.17157C34.0783 5.42143 33.0609 5 32 5H4C2.93913 5 1.92172 5.42143 1.17157 6.17157C0.421427 6.92172 0 7.93913 0 9L0 14H36Z" fill="#FF9933"/>
<path d="M0 13.668H36V22.335H0V13.668Z" fill="#F7F7F7"/>
<path d="M18 22C20.2091 22 22 20.2091 22 18C22 15.7909 20.2091 14 18 14C15.7909 14 14 15.7909 14 18C14 20.2091 15.7909 22 18 22Z" fill="#000080"/>
<path d="M18 21.375C19.864 21.375 21.375 19.864 21.375 18C21.375 16.136 19.864 14.625 18 14.625C16.136 14.625 14.625 16.136 14.625 18C14.625 19.864 16.136 21.375 18 21.375Z" fill="#F7F7F7"/>
<path d="M18.1008 16.7508L18.0008 17.4008L17.9008 16.7508L18.0008 14.8008L18.1008 16.7508ZM17.1728 14.9098L17.5808 16.8188L17.8458 17.4208L17.7738 16.7678L17.1728 14.9098ZM16.4008 15.2298L17.2888 16.9678L17.7008 17.4808L17.4628 16.8678L16.4008 15.2298ZM15.7378 15.7378L17.0458 17.1878L17.5768 17.5768L17.1878 17.0458L15.7378 15.7378ZM15.2298 16.4008L16.8678 17.4628L17.4808 17.7008L16.9678 17.2888L15.2298 16.4008ZM14.9098 17.1728L16.7678 17.7738L17.4208 17.8458L16.8188 17.5808L14.9098 17.1728ZM14.8008 18.0008L16.7508 18.1008L17.4008 18.0008L16.7508 17.9008L14.8008 18.0008ZM14.9098 18.8288L16.8188 18.4208L17.4208 18.1558L16.7678 18.2278L14.9098 18.8288ZM15.2298 19.6008L16.9678 18.7128L17.4808 18.3008L16.8678 18.5388L15.2298 19.6008ZM15.7378 20.2638L17.1878 18.9558L17.5768 18.4248L17.0458 18.8138L15.7378 20.2638ZM16.4008 20.7718L17.4628 19.1338L17.7008 18.5208L17.2888 19.0338L16.4008 20.7718ZM17.1728 21.0918L17.7738 19.2338L17.8458 18.5808L17.5808 19.1828L17.1728 21.0918ZM18.0008 21.2008L18.1008 19.2508L18.0008 18.6008L17.9008 19.2508L18.0008 21.2008ZM18.8288 21.0918L18.4208 19.1828L18.1558 18.5808L18.2278 19.2338L18.8288 21.0918ZM19.6008 20.7718L18.7128 19.0338L18.3008 18.5208L18.5388 19.1338L19.6008 20.7718ZM20.2638 20.2638L18.9558 18.8138L18.4248 18.4248L18.8138 18.9558L20.2638 20.2638ZM20.7718 19.6008L19.1338 18.5388L18.5208 18.3008L19.0338 18.7128L20.7718 19.6008ZM21.0918 18.8288L19.2338 18.2278L18.5808 18.1558L19.1828 18.4208L21.0918 18.8288ZM21.2008 18.0008L19.2508 17.9008L18.6008 18.0008L19.2508 18.1008L21.2008 18.0008ZM21.0918 17.1728L19.1828 17.5808L18.5808 17.8458L19.2338 17.7738L21.0918 17.1728ZM20.7718 16.4008L19.0338 17.2888L18.5208 17.7008L19.1338 17.4628L20.7718 16.4008ZM20.2638 15.7378L18.8138 17.0458L18.4248 17.5768L18.9558 17.1878L20.2638 15.7378ZM19.6008 15.2298L18.5388 16.8678L18.3008 17.4808L18.7128 16.9678L19.6008 15.2298ZM18.8288 14.9098L18.2278 16.7678L18.1558 17.4208L18.4208 16.8188L18.8288 14.9098Z" fill="#6666B3"/>
<path d="M17.5594 14.859C17.6698 14.859 17.7594 14.7694 17.7594 14.659C17.7594 14.5485 17.6698 14.459 17.5594 14.459C17.4489 14.459 17.3594 14.5485 17.3594 14.659C17.3594 14.7694 17.4489 14.859 17.5594 14.859Z" fill="#000080"/>
<path d="M16.7098 15.0875C16.8202 15.0875 16.9098 14.998 16.9098 14.8875C16.9098 14.777 16.8202 14.6875 16.7098 14.6875C16.5993 14.6875 16.5098 14.777 16.5098 14.8875C16.5098 14.998 16.5993 15.0875 16.7098 15.0875Z" fill="#000080"/>
<path d="M15.948 15.527C16.0585 15.527 16.148 15.4374 16.148 15.327C16.148 15.2165 16.0585 15.127 15.948 15.127C15.8376 15.127 15.748 15.2165 15.748 15.327C15.748 15.4374 15.8376 15.527 15.948 15.527Z" fill="#000080"/>
<path d="M15.327 16.148C15.4374 16.148 15.527 16.0585 15.527 15.948C15.527 15.8376 15.4374 15.748 15.327 15.748C15.2165 15.748 15.127 15.8376 15.127 15.948C15.127 16.0585 15.2165 16.148 15.327 16.148Z" fill="#000080"/>
<path d="M14.8875 16.9098C14.998 16.9098 15.0875 16.8202 15.0875 16.7098C15.0875 16.5993 14.998 16.5098 14.8875 16.5098C14.777 16.5098 14.6875 16.5993 14.6875 16.7098C14.6875 16.8202 14.777 16.9098 14.8875 16.9098Z" fill="#000080"/>
<path d="M14.659 17.7594C14.7694 17.7594 14.859 17.6698 14.859 17.5594C14.859 17.4489 14.7694 17.3594 14.659 17.3594C14.5485 17.3594 14.459 17.4489 14.459 17.5594C14.459 17.6698 14.5485 17.7594 14.659 17.7594Z" fill="#000080"/>
<path d="M14.659 18.6402C14.7694 18.6402 14.859 18.5507 14.859 18.4402C14.859 18.3298 14.7694 18.2402 14.659 18.2402C14.5485 18.2402 14.459 18.3298 14.459 18.4402C14.459 18.5507 14.5485 18.6402 14.659 18.6402Z" fill="#000080"/>
<path d="M14.8875 19.4898C14.998 19.4898 15.0875 19.4003 15.0875 19.2898C15.0875 19.1794 14.998 19.0898 14.8875 19.0898C14.777 19.0898 14.6875 19.1794 14.6875 19.2898C14.6875 19.4003 14.777 19.4898 14.8875 19.4898Z" fill="#000080"/>
<path d="M15.327 20.2516C15.4374 20.2516 15.527 20.162 15.527 20.0516C15.527 19.9411 15.4374 19.8516 15.327 19.8516C15.2165 19.8516 15.127 19.9411 15.127 20.0516C15.127 20.162 15.2165 20.2516 15.327 20.2516Z" fill="#000080"/>
<path d="M15.948 20.8746C16.0585 20.8746 16.148 20.7851 16.148 20.6746C16.148 20.5642 16.0585 20.4746 15.948 20.4746C15.8376 20.4746 15.748 20.5642 15.748 20.6746C15.748 20.7851 15.8376 20.8746 15.948 20.8746Z" fill="#000080"/>
<path d="M16.7098 21.3121C16.8202 21.3121 16.9098 21.2226 16.9098 21.1121C16.9098 21.0017 16.8202 20.9121 16.7098 20.9121C16.5993 20.9121 16.5098 21.0017 16.5098 21.1121C16.5098 21.2226 16.5993 21.3121 16.7098 21.3121Z" fill="#000080"/>
<path d="M17.5594 21.5406C17.6698 21.5406 17.7594 21.4511 17.7594 21.3406C17.7594 21.2302 17.6698 21.1406 17.5594 21.1406C17.4489 21.1406 17.3594 21.2302 17.3594 21.3406C17.3594 21.4511 17.4489 21.5406 17.5594 21.5406Z" fill="#000080"/>
<path d="M18.4402 21.5406C18.5507 21.5406 18.6402 21.4511 18.6402 21.3406C18.6402 21.2302 18.5507 21.1406 18.4402 21.1406C18.3298 21.1406 18.2402 21.2302 18.2402 21.3406C18.2402 21.4511 18.3298 21.5406 18.4402 21.5406Z" fill="#000080"/>
<path d="M19.2898 21.3121C19.4003 21.3121 19.4898 21.2226 19.4898 21.1121C19.4898 21.0017 19.4003 20.9121 19.2898 20.9121C19.1794 20.9121 19.0898 21.0017 19.0898 21.1121C19.0898 21.2226 19.1794 21.3121 19.2898 21.3121Z" fill="#000080"/>
<path d="M20.0516 20.8746C20.162 20.8746 20.2516 20.7851 20.2516 20.6746C20.2516 20.5642 20.162 20.4746 20.0516 20.4746C19.9411 20.4746 19.8516 20.5642 19.8516 20.6746C19.8516 20.7851 19.9411 20.8746 20.0516 20.8746Z" fill="#000080"/>
<path d="M20.6746 20.2516C20.7851 20.2516 20.8746 20.162 20.8746 20.0516C20.8746 19.9411 20.7851 19.8516 20.6746 19.8516C20.5642 19.8516 20.4746 19.9411 20.4746 20.0516C20.4746 20.162 20.5642 20.2516 20.6746 20.2516Z" fill="#000080"/>
<path d="M21.1121 19.4898C21.2226 19.4898 21.3121 19.4003 21.3121 19.2898C21.3121 19.1794 21.2226 19.0898 21.1121 19.0898C21.0017 19.0898 20.9121 19.1794 20.9121 19.2898C20.9121 19.4003 21.0017 19.4898 21.1121 19.4898Z" fill="#000080"/>
<path d="M21.3406 18.6402C21.4511 18.6402 21.5406 18.5507 21.5406 18.4402C21.5406 18.3298 21.4511 18.2402 21.3406 18.2402C21.2302 18.2402 21.1406 18.3298 21.1406 18.4402C21.1406 18.5507 21.2302 18.6402 21.3406 18.6402Z" fill="#000080"/>
<path d="M21.3406 17.7594C21.4511 17.7594 21.5406 17.6698 21.5406 17.5594C21.5406 17.4489 21.4511 17.3594 21.3406 17.3594C21.2302 17.3594 21.1406 17.4489 21.1406 17.5594C21.1406 17.6698 21.2302 17.7594 21.3406 17.7594Z" fill="#000080"/>
<path d="M21.1121 16.9098C21.2226 16.9098 21.3121 16.8202 21.3121 16.7098C21.3121 16.5993 21.2226 16.5098 21.1121 16.5098C21.0017 16.5098 20.9121 16.5993 20.9121 16.7098C20.9121 16.8202 21.0017 16.9098 21.1121 16.9098Z" fill="#000080"/>
<path d="M20.6746 16.148C20.7851 16.148 20.8746 16.0585 20.8746 15.948C20.8746 15.8376 20.7851 15.748 20.6746 15.748C20.5642 15.748 20.4746 15.8376 20.4746 15.948C20.4746 16.0585 20.5642 16.148 20.6746 16.148Z" fill="#000080"/>
<path d="M20.0516 15.527C20.162 15.527 20.2516 15.4374 20.2516 15.327C20.2516 15.2165 20.162 15.127 20.0516 15.127C19.9411 15.127 19.8516 15.2165 19.8516 15.327C19.8516 15.4374 19.9411 15.527 20.0516 15.527Z" fill="#000080"/>
<path d="M19.2898 15.0875C19.4003 15.0875 19.4898 14.998 19.4898 14.8875C19.4898 14.777 19.4003 14.6875 19.2898 14.6875C19.1794 14.6875 19.0898 14.777 19.0898 14.8875C19.0898 14.998 19.1794 15.0875 19.2898 15.0875Z" fill="#000080"/>
<path d="M18.4402 14.859C18.5507 14.859 18.6402 14.7694 18.6402 14.659C18.6402 14.5485 18.5507 14.459 18.4402 14.459C18.3298 14.459 18.2402 14.5485 18.2402 14.659C18.2402 14.7694 18.3298 14.859 18.4402 14.859Z" fill="#000080"/>
<path d="M17.9996 18.8996C18.4967 18.8996 18.8996 18.4967 18.8996 17.9996C18.8996 17.5026 18.4967 17.0996 17.9996 17.0996C17.5026 17.0996 17.0996 17.5026 17.0996 17.9996C17.0996 18.4967 17.5026 18.8996 17.9996 18.8996Z" fill="#000080"/>
</g>
<defs>
<clipPath id="clip0_58_7787">
<rect width="36" height="36" fill="white"/>
</clipPath>
</defs>
</svg>
