<svg width="36" height="36" viewBox="0 0 36 36" fill="none" xmlns="http://www.w3.org/2000/svg">
<g clip-path="url(#clip0_58_7769)">
<path d="M0 9.059V13H5.628L0 9.059ZM4.664 31H13V25.163L4.664 31ZM23 25.164V31H31.335L23 25.164ZM0 23V26.941L5.63 23H0ZM31.337 5H23V10.837L31.337 5ZM36 26.942V23H30.369L36 26.942ZM36 13V9.059L30.371 13H36ZM13 5H4.664L13 10.837V5Z" fill="#00247D"/>
<path d="M25.1392 23.0002L34.8512 29.8012C35.3255 29.3126 35.6664 28.7104 35.8412 28.0522L28.6263 23.0002H25.1392ZM12.9993 23.0002H10.8583L1.14725 29.8002C1.66825 30.3302 2.33625 30.7092 3.08525 30.8852L12.9993 23.9432V23.0002ZM22.9993 13.0002H25.1403L34.8512 6.20023C34.3213 5.66251 33.6496 5.28626 32.9142 5.11523L22.9993 12.0572V13.0002ZM10.8583 13.0002L1.14725 6.20023C0.673203 6.68921 0.332065 7.29128 0.15625 7.94923L7.37125 13.0002H10.8583Z" fill="#CF1B2B"/>
<path d="M36 21H21V31H23V25.164L31.335 31H32C32.5313 31.0001 33.0572 30.8941 33.5469 30.6882C34.0367 30.4823 34.4804 30.1807 34.852 29.801L25.14 23H28.627L35.842 28.052C35.935 27.715 36 27.366 36 27V26.942L30.369 23H36V21ZM0 21V23H5.63L0 26.941V27C0 28.091 0.439 29.078 1.148 29.8L10.859 23H13V23.943L3.086 30.884C3.38 30.954 3.684 31 4 31H4.664L13 25.163V31H15V21H0ZM36 9C36.0006 7.95198 35.5881 6.94595 34.852 6.2L25.141 13H23V12.057L32.915 5.115C32.6155 5.04153 32.3084 5.00294 32 5H31.337L23 10.837V5H21V15H36V13H30.371L36 9.059V9ZM13 5V10.837L4.664 5H4C3.46862 4.99977 2.94257 5.10581 2.45278 5.3119C1.96299 5.51798 1.51936 5.81993 1.148 6.2L10.859 13H7.372L0.157 7.949C0.0577802 8.29071 0.00497341 8.64421 0 9L0 9.059L5.628 13H0V15H15V5H13Z" fill="#EEEEEE"/>
<path d="M21 15V5H15V15H0V21H15V31H21V21H36V15H21Z" fill="#CF1B2B"/>
</g>
<defs>
<clipPath id="clip0_58_7769">
<rect width="36" height="36" fill="white"/>
</clipPath>
</defs>
</svg>
