<svg width="94" height="25" viewBox="0 0 94 25" fill="none" xmlns="http://www.w3.org/2000/svg">
<g clip-path="url(#clip0_58_7460)">
<path d="M27.6709 0.713081C22.2632 0.75182 17.8398 6.77382 17.8398 12.0264C17.8398 17.5539 21.0823 24.2965 27.6709 24.2746C34.2594 24.2527 37.6791 16.9937 37.6791 12.0264C37.6791 6.53962 33.0786 0.674344 27.6709 0.713081ZM27.6709 0.919105C32.1969 0.919105 33.418 5.92754 33.418 12.0264C33.418 20.0737 31.945 24.0439 27.6709 24.0363C23.3967 24.0287 22.0062 20.7793 22.0062 12.0264C22.0062 6.54338 23.1448 0.919105 27.6709 0.919105Z" fill="black"/>
<path d="M39.4649 12.1746C39.4407 6.19796 44.2147 0.903837 48.256 0.641171C49.7158 0.53755 51.5922 1.20734 52.6877 1.68447C53.4831 2.03093 55.107 1.52943 55.3953 0.609375H55.5526V8.75064H55.3953C55.3953 8.40358 53.8906 0.845856 48.256 0.845856C44.0942 0.845856 43.6921 8.17824 43.6921 12.1746C43.6921 16.1709 43.8134 24.0823 48.6701 24.0823C51.0228 24.0823 52.7643 23.0509 53.2157 20.9645V14.6203H51.2409V14.3501H58.8956V14.6203H57.0076V23.8954H56.8539C56.8539 23.8954 56.547 22.5571 54.9894 22.5616C52.9988 22.5673 51.1214 24.3002 48.8329 24.2791C42.7807 24.2233 39.4892 18.1512 39.4649 12.1746Z" fill="black"/>
<path d="M2.99282 1.51454H0.609375V1.24609H8.9587V1.51454H6.86406L12.8299 17.7475C14.6954 11.9929 16.1406 7.73904 18.0854 1.51454H16.0136V1.24609H20.4221V1.51454H18.4145L11.1637 24.1626L2.99282 1.51454Z" fill="black"/>
<path d="M60.0642 18.6183L60.0265 1.48901H57.7578V1.23242H66.1161V1.48901H63.8487L63.8991 20.2704C64.401 22.421 65.2934 24.0529 68.3423 24.0772C71.3911 24.1014 73.4638 22.27 74.2341 19.7672V1.48901H71.6388L71.6388 1.23998H92.8807L92.9249 9.46274H92.7207C92.3267 4.15361 90.2822 2.14714 86.7065 1.56178C85.4761 1.36036 84.1853 1.50968 82.5535 1.49697V11.9914C83.9744 12.1014 85.4881 12.0114 86.5081 11.1336C87.4357 10.3353 87.6979 8.49106 87.7661 7.74182H87.9456V16.8792H87.7513C87.6951 16.8792 87.6205 14.5862 86.5081 13.4983C85.3884 12.4033 83.9625 12.1341 82.5535 12.395V23.6053C84.5438 23.6053 86.1304 23.7742 87.5082 23.3958C91.6963 22.2453 93.1707 18.705 93.1594 15.1542H93.3923V23.8707H76.7307V23.6053H78.6146V1.48901H74.5443V19.7672C74.0829 21.5161 72.3968 24.4094 68.0756 24.3896C64.0578 24.3713 60.0729 22.5564 60.0642 18.6183Z" fill="black"/>
</g>
<defs>
<clipPath id="clip0_58_7460">
<rect width="94" height="25" fill="white"/>
</clipPath>
</defs>
</svg>
