<svg width="66" height="66" viewBox="0 0 66 66" fill="none" xmlns="http://www.w3.org/2000/svg">
<g clip-path="url(#clip0_58_7468)">
<path d="M46.5645 36.6716L58.9395 24.8329L47.0982 13.4883L46.5645 36.6716Z" fill="black"/>
<path d="M36.4005 3.25297L33.0015 0L7.05859 24.8325L17.1632 34.4933L36.4005 3.25297Z" fill="black"/>
<path d="M42.2162 8.81914L38.757 5.51172L25.8086 42.7687L33.0018 49.6566L35.6335 47.1412L42.2162 8.81914Z" fill="black"/>
<path d="M0 57.6387H5.97465V58.9273H1.52955V61.0913H5.88225V62.3824H1.52955V64.6924H5.97382V65.9811H0V57.6387Z" fill="black"/>
<path d="M11.5957 57.6387H13.1385V64.6924H16.9648V65.9811H11.5957V57.6387Z" fill="black"/>
<path d="M22.4023 57.6387H28.377V58.9273H23.9319V61.0913H28.2879V62.3824H23.9319V64.6924H28.3762V65.9811H22.4023V57.6387Z" fill="black"/>
<path d="M33.084 57.6387H34.8223L37.4623 64.4037L40.1023 57.6387H41.8405L38.4135 65.9844H36.5077L33.084 57.6387Z" fill="black"/>
<path d="M46.8477 57.6387H52.8223V58.9273H48.378V61.0913H52.7307V62.3824H48.378V64.6924H52.8223V65.9811H46.8477V57.6387Z" fill="black"/>
<path d="M59.9729 59.9074V65.9943H58.4434V57.6387H60.0109L64.4659 63.5729V57.6552H65.9954V66.0009H64.5236L59.9729 59.9074Z" fill="black"/>
</g>
<defs>
<clipPath id="clip0_58_7468">
<rect width="66" height="66" fill="white"/>
</clipPath>
</defs>
</svg>
