<svg width="82" height="42" viewBox="0 0 82 42" fill="none" xmlns="http://www.w3.org/2000/svg">
<g clip-path="url(#clip0_58_7481)">
<path d="M81.7717 41.8009L0.113625 41.8858L0.0566406 12.7632L40.9997 0.0273438L81.7717 12.8764V41.8009Z" fill="black"/>
<path d="M13.7055 22.529V21.3686C13.7055 20.1234 13.1927 19.7271 12.5944 19.9252C11.6826 20.2083 11.3692 20.8309 11.3692 21.9347V29.463C11.3692 30.5668 11.6541 31.0196 12.5944 30.7366C13.4206 30.4819 13.7055 29.8592 13.7055 28.8969V27.1139L15.9849 26.4064V28.1045C15.9849 30.1988 14.8737 32.2366 12.5944 32.9441C10.201 33.68 9.08984 32.3215 9.08984 30.2271V22.5856C9.08984 20.4913 10.201 18.4535 12.5944 17.7177C14.8737 17.0102 15.9849 18.5102 15.9849 20.746V21.8498L13.7055 22.529Z" fill="white"/>
<path d="M20.4863 15.482L22.7657 14.7744V25.9537C22.7657 27.0575 23.1646 27.4537 23.9908 27.199C24.8171 26.9442 25.216 26.2933 25.216 25.1895V14.0103L27.4954 13.3027V24.3971C27.4954 26.9442 26.1562 28.7556 23.9908 29.4065C21.8255 30.0575 20.4863 29.0952 20.4863 26.548V15.482Z" fill="white"/>
<path d="M34.3048 17.8588L35.1025 17.6041C36.3277 17.2361 36.7836 16.5569 36.7836 14.8022C36.7836 13.0475 36.3277 12.6795 35.1025 13.0475L34.3048 13.3022V17.8588ZM34.3048 26.038L32.0254 26.7456V11.9154L35.2165 10.9248C37.7808 10.1324 39.0629 10.9531 39.0629 14.0946C39.0629 16.472 38.2366 17.689 37.4674 18.3399L39.4048 24.4531L37.0685 25.1607L35.4444 19.5286C35.1595 19.6701 34.6751 19.8116 34.2763 19.9531L34.3048 26.038Z" fill="white"/>
<path d="M45.9864 23.4063L46.9266 23.6893C48.1518 24.0572 48.5792 23.4346 48.5792 21.9346C48.5792 20.4063 48.0663 19.5006 46.6987 19.0761L45.9579 18.8497L45.9864 23.4063ZM45.9864 16.7553L46.8127 17.0101C47.6959 17.2648 48.3512 16.8402 48.3512 15.595C48.3512 14.2365 47.8669 13.3591 46.8696 13.0478L45.9864 12.7931V16.7553ZM43.707 9.96289L47.0976 11.0101C49.5479 11.7742 50.6306 13.5006 50.6306 16.0195C50.6306 17.2931 50.1462 18.4818 49.0635 18.6233C50.2317 19.5572 50.9155 20.8025 50.9155 22.6987C50.9155 25.1327 49.9468 26.6893 47.354 25.8686L43.7355 24.7365L43.707 9.96289Z" fill="white"/>
<path d="M55.2461 28.3868V13.5566L61.3434 15.4529V17.6604L57.5255 16.4717V20.2925L60.4601 21.1982V23.4057L57.5255 22.5V26.8585L61.5998 28.1321V30.3397L55.2461 28.3868Z" fill="white"/>
<path d="M68.1817 30.3106L68.9795 30.5653C70.2046 30.9332 70.632 30.5653 70.632 29.0087V22.5276C70.632 20.971 70.2046 20.32 68.9795 19.9521L68.1817 19.6974V30.3106ZM65.9023 16.8672L69.2929 17.9144C71.6292 18.6502 72.9114 20.4615 72.9114 23.5181V29.3766C72.9114 32.4049 71.6577 33.4804 69.2929 32.7445L65.9023 31.6974V16.8672Z" fill="white"/>
<path d="M41 0L40.3732 0.198113L1.48158 12.2547L0 12.7075V41.9717H81.9715V12.7075L80.4899 12.2547L41.6268 0.198113L41 0ZM41 2.20755L79.8916 14.2642V39.9057H2.1369V14.2358L41 2.20755Z" fill="white"/>
</g>
<defs>
<clipPath id="clip0_58_7481">
<rect width="82" height="42" fill="white"/>
</clipPath>
</defs>
</svg>
