<svg width="111" height="22" viewBox="0 0 111 22" fill="none" xmlns="http://www.w3.org/2000/svg">
<g clip-path="url(#clip0_58_7493)">
<path d="M0 21.5896V0H8.54646C12.1888 0 14.062 2.62358 14.062 5.49634C14.062 8.17855 12.566 10.0253 10.7579 10.4504C12.8262 10.8021 14.4392 13.0446 14.4392 15.7268C14.4392 18.9953 12.54 21.5896 8.87167 21.5896H0ZM9.89933 6.31712C9.89933 4.98334 9.04078 4.0453 7.6619 4.0453H4.08461V8.57428H7.6619C9.04078 8.57428 9.89933 7.70953 9.89933 6.31712ZM10.2766 15.0819C10.2766 13.7189 9.41802 12.6196 7.83101 12.6196H4.08461V17.5443H7.84402C9.35298 17.5443 10.2766 16.6356 10.2766 15.0819Z" fill="black"/>
<path d="M15.5586 15.3316V5.95117H19.2269V15.1997C19.2269 17.0611 20.2286 18.4095 22.1798 18.4095C24.1051 18.4095 25.1197 17.0611 25.1197 15.1997V5.95117H28.775V15.3169C28.775 19.245 26.6807 22.0005 22.1928 22.0005C17.705 22.0005 15.5586 19.2157 15.5586 15.3316Z" fill="black"/>
<path d="M29.9844 21.5901V18.5121L36.2414 9.54211H29.9844V5.95117H41.2106V8.89721L34.8365 17.9991H41.3276V21.5901H29.9844Z" fill="black"/>
<path d="M42.5234 21.5901V18.5121L48.7804 9.54211H42.5234V5.95117H53.7496V8.89721L47.3755 17.9991H53.8667V21.5901H42.5234Z" fill="black"/>
<path d="M55.2324 21.5896V0H68.5269V4.0453H59.317V8.57428H66.2505V12.6196H59.317V21.5896H55.2324Z" fill="black"/>
<path d="M67.2793 13.7635C67.2793 9.23454 70.2712 5.57031 74.4599 5.57031C78.6226 5.57031 81.4063 9.07331 81.4063 14.1446V15.1119H71.0907C71.3509 17.0173 72.7298 18.6149 75.0843 18.6149C76.268 18.6149 77.8681 18.058 78.7656 17.0906L80.4047 19.8168C79.0258 21.2385 76.8404 21.986 74.694 21.986C70.4663 21.986 67.2793 18.7762 67.2793 13.7635ZM74.4599 8.9414C72.1964 8.9414 71.2078 10.7149 71.0647 12.2685H77.9071C77.79 10.7735 76.8664 8.9414 74.4599 8.9414Z" fill="black"/>
<path d="M82.3945 13.7635C82.3945 9.23454 85.3864 5.57031 89.5751 5.57031C93.7378 5.57031 96.5216 9.07331 96.5216 14.1446V15.1119H86.206C86.4661 17.0173 87.845 18.6149 90.1995 18.6149C91.3833 18.6149 92.9833 18.058 93.8809 17.0906L95.5199 19.8168C94.141 21.2385 91.9556 21.986 89.8093 21.986C85.5816 21.986 82.3945 18.7762 82.3945 13.7635ZM89.5751 8.9414C87.3117 8.9414 86.323 10.7149 86.1799 12.2685H93.0223C92.9052 10.7735 91.9817 8.9414 89.5751 8.9414Z" fill="black"/>
<path d="M97.8613 21.6194V5.92188H103.455C107.839 5.92188 111 8.88257 111 13.7633C111 18.6294 107.852 21.6194 103.481 21.6194H97.8613ZM107.448 13.7633C107.448 11.3303 106.148 9.30762 103.598 9.30762H101.335V18.2337H103.598C106.031 18.2337 107.448 16.0938 107.448 13.7633Z" fill="black"/>
</g>
<defs>
<clipPath id="clip0_58_7493">
<rect width="111" height="22" fill="white"/>
</clipPath>
</defs>
</svg>
