<svg width="104" height="33" viewBox="0 0 104 33" fill="none" xmlns="http://www.w3.org/2000/svg">
<g clip-path="url(#clip0_58_7458)">
<path d="M23.5852 17.5888C23.9377 17.4187 24.3255 17.2146 24.6781 17.0445C24.8191 16.9764 25.3126 16.8063 25.3831 16.6702C25.4184 16.6022 25.3831 16.3981 25.3831 16.296V15.4795V9.66198V3.98054V3.23208C25.3831 3.19806 25.4184 2.95992 25.3831 2.9259C25.3479 2.89188 25.0659 2.9259 25.0306 2.9259H24.255C23.973 2.9259 24.0082 2.95992 23.832 3.16404C23.1621 4.01456 22.4923 4.86507 21.8225 5.74961C21.5052 6.15786 21.1879 6.53208 20.9059 6.94033C20.6943 7.2125 20.6943 7.24652 20.3065 7.24652L20.4123 5.00116C20.4476 4.45683 20.4476 3.9125 20.4828 3.36817C20.4828 3.16404 20.5181 2.95992 20.5181 2.7558C20.5181 2.68776 20.4828 2.48363 20.5181 2.44961C20.5886 2.34755 21.2231 2.41559 21.3994 2.41559H34.5845C34.655 2.41559 34.9723 2.38157 35.0428 2.41559C35.1133 2.44961 35.0781 2.65373 35.0781 2.7558C35.1133 3.19806 35.1133 3.67435 35.1486 4.11662C35.1838 5.10322 35.2191 6.0558 35.2896 7.04239V7.24652C35.1133 7.24652 34.9723 7.28054 34.8313 7.17848C34.6903 7.07642 34.5845 6.87229 34.4787 6.73621C34.0557 6.19188 33.6326 5.61353 33.1743 5.0692L31.9052 3.43621C31.8347 3.33415 31.7289 3.096 31.5879 3.02796C31.4821 2.95992 31.2706 2.99394 31.1296 2.99394H30.5655C30.495 2.99394 30.213 2.95992 30.1425 2.99394C30.1072 3.02796 30.1425 3.02796 30.1072 3.096C30.0367 3.36817 30.1072 3.70837 30.1072 3.98054V15.8197C30.1072 16.0579 30.0367 16.3981 30.1072 16.6362C30.1777 16.8744 30.7418 17.0445 30.9886 17.1465C31.2354 17.2826 31.6584 17.3847 31.8699 17.5888C31.9404 17.6568 32.0109 17.997 31.9404 18.0991C31.9052 18.1331 31.7289 18.0991 31.6937 18.0991H23.9377C23.8672 18.0991 23.6204 18.1331 23.5852 18.0991C23.5499 17.963 23.5852 17.6908 23.5852 17.5888ZM36.6645 16.9764V12.0094V3.87848V2.55167C36.6645 2.34755 36.735 2.04136 36.6645 1.83724C36.594 1.5991 36.1709 1.56507 35.9242 1.46301C35.7831 1.42899 35.3248 1.32693 35.2543 1.19085V0.918683H35.3601C35.5011 0.850642 35.7831 0.850642 35.9594 0.816621C36.2767 0.74858 36.594 0.714559 36.876 0.646518C37.5811 0.510435 38.3215 0.374353 39.0265 0.272291C39.4496 0.20425 39.8726 0.102188 40.2957 0.0341468C40.4015 0.0341468 40.8245 -0.0338944 40.8598 0.0341468C40.895 0.0681674 40.8598 0.20425 40.8598 0.23827V7.28054C42.1994 5.98775 44.5262 5.27332 46.3947 5.71559C48.0164 6.08982 48.5452 7.5527 48.5452 9.04961C48.5804 10.9548 48.5452 12.8259 48.5452 14.7311V16.262C48.5452 16.4321 48.4747 16.8403 48.5452 17.0104C48.5804 17.0785 48.7215 17.1125 48.792 17.1805C49.0387 17.3166 49.3208 17.4527 49.5676 17.5888C49.6028 17.6228 49.7086 17.6568 49.7086 17.6908C49.7438 17.7249 49.7438 18.0311 49.7086 18.0651C49.6733 18.1331 49.6733 18.0991 49.5676 18.0991C49.1798 18.1671 48.7567 18.0991 48.4042 18.0991H43.3276C43.2923 18.0991 43.116 18.1331 43.0808 18.0991C43.0455 18.0651 43.0455 17.6908 43.0808 17.6568C43.1865 17.5207 43.6096 17.3847 43.7506 17.2826C43.8564 17.2146 44.1737 17.1125 44.2442 17.0104C44.3147 16.9084 44.2442 16.5341 44.2442 16.4321V15.0372C44.2442 13.064 44.2794 11.0568 44.2442 9.08363C44.2442 8.50528 44.1384 7.82487 43.5391 7.51868C43.2218 7.34858 42.7987 7.31456 42.4462 7.31456C42.1642 7.31456 41.8821 7.3826 41.6353 7.45064C41.4238 7.51868 41.036 7.65477 40.895 7.82487C40.7892 7.96095 40.8598 8.16507 40.8598 8.33518V16.364C40.8598 16.5341 40.7892 16.8744 40.8598 17.0104C40.895 17.0785 41.036 17.1465 41.1418 17.1805C41.3886 17.3166 41.7059 17.4527 41.9526 17.5888C41.9879 17.6228 42.0584 17.6228 42.0584 17.6568C42.0937 17.6908 42.0937 17.997 42.0584 18.0311C42.0231 18.0651 41.9879 18.0651 41.9174 18.0651C41.5296 18.0991 41.1065 18.0651 40.7187 18.0651H35.6421C35.6069 18.0651 35.4306 18.0991 35.3954 18.0651C35.3601 18.0311 35.3954 17.6908 35.4306 17.6228C35.5364 17.4867 35.9242 17.3506 36.0652 17.2826C36.312 17.1805 36.4882 17.0785 36.6645 16.9764ZM53.4103 12.2816C53.4808 13.7785 53.9743 15.4455 55.3845 16.262C56.1248 16.6702 57.0415 16.8063 57.8876 16.7383C58.9099 16.6362 59.756 16.1599 60.6374 15.7177C60.6374 15.8537 60.6726 16.0919 60.6374 16.228C60.5669 16.364 60.3906 16.5341 60.2848 16.6362C60.1438 16.7723 59.9676 16.9424 59.7913 17.0785C59.192 17.5548 58.5221 17.895 57.817 18.1331C56.4774 18.5754 54.9262 18.5414 53.5513 18.2012C52.4584 17.929 51.4713 17.4187 50.7309 16.6022C49.9906 15.7857 49.5676 14.7311 49.3913 13.6424C49.0035 11.295 49.4618 8.60734 51.4713 7.04239C53.234 5.68157 56.0543 5.4094 58.1343 6.2259C60.6726 7.2125 61.0957 10.0022 61.0957 12.3156H54.3621C54.0448 12.2816 53.7276 12.2816 53.4103 12.2816ZM53.3398 11.7032C54.0448 11.6692 54.7499 11.6352 55.4903 11.5671C55.9133 11.5331 56.3716 11.5331 56.7947 11.4991C56.8652 11.4991 57.0415 11.4991 57.112 11.4651C57.2177 11.397 57.1472 10.7166 57.1472 10.5805C57.112 9.3558 57.0767 7.85889 56.3364 6.80425C55.8076 6.0558 54.9967 6.19188 54.5032 6.87229C53.4808 8.1991 53.3398 10.1723 53.3398 11.7032ZM-0.0351562 24.1207C-0.0351562 22.2156 0.35264 20.2424 1.44552 18.6434C2.50315 17.0785 4.19535 16.0579 6.02857 15.5475C8.24959 14.9352 10.7174 15.0032 13.0089 15.4115C13.5025 15.5135 13.996 15.6156 14.4543 15.7517C14.5248 15.7857 14.8421 15.8537 14.8774 15.9218V16.0238C14.9831 16.4321 14.9126 16.9424 14.9126 17.3506C14.9479 18.4053 14.9479 19.4939 14.9831 20.5486C14.8421 20.5486 14.5954 20.5826 14.4896 20.5486C14.4191 20.5146 14.3486 20.3445 14.3133 20.2764C14.0313 19.8682 13.7492 19.4599 13.5025 19.0177C12.9031 18.0991 12.2686 17.1805 11.6692 16.262C11.352 15.7517 10.4706 15.7517 9.90654 15.7517C9.27196 15.7517 8.63739 15.8537 8.10857 16.1599C6.90993 16.8744 6.34586 18.2692 6.02857 19.528C5.53501 21.5352 5.57027 23.6445 5.67603 25.6857C5.78179 27.2506 5.92281 28.9177 6.55739 30.3465C6.94518 31.2311 7.61501 32.0135 8.63739 32.2177C8.95467 32.2857 9.27196 32.2857 9.62451 32.2517C9.83603 32.2177 10.5764 32.1836 10.6821 31.9795C10.7174 31.9115 10.6821 31.7414 10.6821 31.6733V31.095V27.4888V26.0939C10.6821 25.8558 10.7526 25.7537 10.5411 25.6177C10.2943 25.4816 10.0123 25.3455 9.76552 25.1754C9.58925 25.0733 9.23671 24.9713 9.13095 24.8352C9.06044 24.7671 9.02518 24.3929 9.09569 24.3249C9.13095 24.2568 9.13095 24.2908 9.23671 24.2908C9.554 24.2228 9.97705 24.2908 10.2943 24.2908H15.7587C16.1113 24.2908 16.4991 24.2568 16.8516 24.2908H16.9926C17.0279 24.3249 17.0279 24.8012 16.9926 24.8692C16.9221 24.9713 16.5696 25.1073 16.4286 25.1754C16.1818 25.3115 15.8998 25.4475 15.653 25.6177C15.3709 25.7537 15.4062 25.7537 15.4062 26.0599V31.6053C15.4062 31.6733 15.4415 31.8434 15.4062 31.9115C15.3357 32.0816 14.5954 32.1836 14.3838 32.2517C13.7845 32.4218 13.1499 32.5579 12.5154 32.6599C11.2815 32.864 10.0476 32.9321 8.81366 32.8981C6.83942 32.83 4.75942 32.4218 3.13773 31.2651C1.72756 30.2785 0.810945 28.7816 0.387895 27.1486C0.0706065 26.196 -0.0351562 25.1414 -0.0351562 24.1207ZM16.217 21.0249C16.217 20.9568 16.1818 20.6847 16.217 20.6506C16.2523 20.6166 16.2876 20.6506 16.3228 20.6166C16.5343 20.5146 16.8164 20.5146 17.0631 20.4805C17.874 20.3445 18.6848 20.2084 19.5309 20.0723C20.1655 19.9702 20.8001 19.8341 21.3994 19.7661C21.5757 19.7321 21.7872 19.7321 21.9635 19.8001C22.1398 19.8341 22.0693 19.8001 22.1045 19.9362C22.175 20.3445 22.1045 20.8207 22.1045 21.229V28.3393C22.1045 29.1898 21.8577 30.7548 22.7038 31.2651C23.1269 31.5372 23.7262 31.5372 24.2198 31.4352C24.6076 31.3671 25.3479 31.095 25.4889 30.6867C25.5242 30.5847 25.4889 30.4486 25.4889 30.3465V29.6321V24.9032V22.7259V22.0115C25.4889 21.9434 25.5242 21.7393 25.4889 21.6713C25.3832 21.5692 25.0306 21.4671 24.9248 21.4331C24.7133 21.3651 24.537 21.263 24.3255 21.195C24.255 21.1609 24.0082 21.1269 23.973 21.0589C23.9377 21.0249 23.9377 20.7187 23.973 20.6847C24.0082 20.6506 24.0082 20.6847 24.0435 20.6506C24.2198 20.5486 24.537 20.5826 24.7133 20.5486C26.1587 20.3104 27.6394 20.0042 29.1201 19.8001C29.2964 19.7661 29.4726 19.7661 29.6489 19.8001C29.8252 19.8341 29.7547 19.7661 29.7899 19.9362C29.8604 20.2764 29.7899 20.7527 29.7899 21.1269V30.9249C29.7899 31.0269 29.7547 31.197 29.7899 31.3331C29.8252 31.4352 29.7899 31.4012 29.9662 31.4692C30.3187 31.6053 30.7065 31.7754 31.0591 31.9115C31.1648 31.9455 31.2001 31.9455 31.2354 32.0135C31.2706 32.0816 31.2706 32.3197 31.2354 32.3197C31.1648 32.3878 30.8123 32.3537 30.7418 32.3878C29.9662 32.4898 29.1906 32.5579 28.3798 32.6599C27.6747 32.728 26.9696 32.83 26.2998 32.8981C26.1587 32.9321 26.0177 32.9321 25.8767 32.8981C25.8062 32.8981 25.5947 32.8981 25.5594 32.864C25.5242 32.796 25.5594 32.5238 25.5594 32.4558V31.8774C25.5594 31.7754 25.6299 31.5032 25.5594 31.4012C25.4889 31.2991 25.3479 31.4352 25.2421 31.5032C24.9601 31.7414 24.6428 31.9795 24.3255 32.1496C23.1621 32.83 21.7167 33.1362 20.377 32.864C19.3899 32.6599 18.5438 32.1156 18.1208 31.197C17.8035 30.5506 17.733 29.8362 17.733 29.1558V25.1073V22.7939V22.0115C17.733 21.9434 17.7682 21.7393 17.733 21.6713C17.6625 21.5692 17.2394 21.4671 17.1337 21.3991C16.7811 21.263 16.4991 21.1609 16.217 21.0249ZM49.4618 19.7321C49.5323 19.7321 49.8496 19.7321 49.8848 19.8001C49.9201 19.8341 49.8848 20.0723 49.8848 20.1063V23.1001C49.8848 23.2022 49.8496 23.3723 49.8848 23.4744V23.5424C50.0259 23.6785 50.0611 23.2362 50.0964 23.2022C50.4137 21.9434 51.013 20.4805 52.3526 19.9702C52.5994 19.8682 52.8462 19.8341 53.093 19.8001C53.3045 19.8001 53.9038 19.7321 54.0096 19.9022C54.0448 19.9702 54.0096 20.1403 54.0096 20.2084V23.6785C53.1635 23.5084 52.2116 23.5424 51.4008 23.7125C51.013 23.7805 50.6604 23.8826 50.3079 24.0527C50.1316 24.1207 50.0964 24.0867 50.0611 24.2228C50.0259 24.3589 50.0611 24.597 50.0611 24.7331V31.2991C50.0611 31.3671 50.0259 31.4692 50.0611 31.5372C50.1316 31.6393 50.3784 31.7073 50.4842 31.7414C50.6604 31.8434 50.872 31.9455 51.0482 32.0475C51.1187 32.0816 51.2245 32.1156 51.2598 32.1836C51.295 32.2177 51.295 32.6259 51.2598 32.6599C51.2245 32.6939 51.013 32.6599 50.9425 32.6599H45.0903C44.914 32.6599 44.5967 32.728 44.4557 32.6599H44.3499C44.3147 32.6259 44.3499 32.2517 44.3499 32.2177C44.4204 32.0135 44.8787 31.8774 45.0903 31.7754C45.2313 31.7073 45.5133 31.6053 45.5838 31.4692C45.6191 31.4012 45.5838 31.197 45.5838 31.129V30.4146V21.6713C45.5838 21.6372 45.6191 21.4671 45.5838 21.4331C45.5486 21.3991 45.3723 21.3651 45.3018 21.3651C45.0903 21.297 44.8787 21.229 44.6672 21.195C44.4557 21.1269 43.9269 21.0929 44.1031 20.7527C44.1384 20.6506 44.2794 20.6847 44.4204 20.6506C45.9716 20.3785 47.4876 20.1063 49.0387 19.8341C49.1798 19.7661 49.3208 19.7661 49.4618 19.7321ZM62.7526 20.0383V17.3166V16.5341C62.7526 16.4321 62.7879 16.228 62.7526 16.1259C62.7174 16.0579 62.5764 16.0238 62.4706 15.9898C62.1886 15.8878 61.9065 15.7857 61.5893 15.6836C61.3777 15.6156 61.272 15.6496 61.272 15.4115C61.272 15.2073 61.2367 15.2754 61.413 15.2414C61.8008 15.1053 62.2591 15.1053 62.6469 15.0372C63.8103 14.8331 64.9384 14.629 66.1018 14.4249C66.3486 14.3908 66.5954 14.3228 66.8421 14.3568C67.1242 14.3908 67.1594 14.3228 67.1594 14.561C67.1947 15.1053 67.1594 15.6836 67.1594 16.228V31.129C67.1594 31.2651 67.1242 31.2651 67.2299 31.3331C67.4415 31.4692 67.794 31.5372 68.0055 31.6053C68.1465 31.6393 68.5343 31.7073 68.6049 31.8094C68.6401 31.8434 68.6401 32.2177 68.6049 32.2517C68.5696 32.2857 68.3581 32.2857 68.3228 32.2857C67.8293 32.3537 67.3709 32.4218 66.8774 32.4558C65.7845 32.5919 64.6916 32.728 63.5635 32.864C63.3872 32.8981 62.9642 32.9661 62.8937 32.83C62.8231 32.6939 62.8937 32.2517 62.8937 32.1156C62.8937 32.0135 62.9642 31.5713 62.8937 31.5032C62.8231 31.4352 62.0476 32.1156 61.9418 32.1836C61.5187 32.4558 61.0604 32.6599 60.5669 32.796C59.7913 33.0001 58.9099 33.0001 58.1343 32.83C54.7499 32.0816 54.0448 28.2032 54.3269 25.3795C54.4679 23.8826 54.9615 22.3857 56.0191 21.297C57.0062 20.3104 58.3459 19.8001 59.7208 19.6981C60.7784 19.596 61.8008 19.664 62.7526 20.0383ZM62.7526 30.8908V22.5218V20.9568C62.7526 20.7527 62.7174 20.7187 62.4706 20.5826C61.977 20.3104 61.3425 20.2084 60.8137 20.4125C60.0028 20.7187 59.615 21.6372 59.4035 22.3857C58.9804 23.7465 58.9452 25.2094 58.9804 26.6383C59.0157 27.863 59.0509 29.3599 59.756 30.4486C60.3906 31.4012 61.836 31.6393 62.7526 30.8908ZM74.4218 19.7321C74.5981 19.7661 74.8096 19.6981 74.8801 19.8682C74.9154 19.9702 74.8801 20.2084 74.8801 20.3104V30.9589C74.8801 31.095 74.8448 31.2991 74.8801 31.4352C74.9154 31.5713 75.0564 31.6053 75.1974 31.6733C75.4089 31.7754 75.5852 31.8774 75.7967 31.9795C75.8672 32.0135 76.0787 32.0816 76.114 32.1836C76.114 32.2177 76.1492 32.6259 76.114 32.6599H76.0082C75.7967 32.6939 75.5147 32.6599 75.2679 32.6599H69.9093C69.7682 32.6599 69.3804 32.728 69.2747 32.6599C69.2042 32.6259 69.1689 32.2177 69.2394 32.1496C69.3099 32.0476 69.5567 31.9795 69.6625 31.9455C69.874 31.8434 70.0855 31.7073 70.2971 31.6053C70.4733 31.5032 70.4381 31.5372 70.4381 31.4012C70.5086 30.8908 70.4381 30.3125 70.4381 29.8022V27.1146V22.2156C70.4381 22.0795 70.4733 21.8414 70.4381 21.7053C70.4028 21.5692 70.2265 21.5692 70.0855 21.5012C69.8387 21.3991 69.6272 21.3311 69.3804 21.229C69.3099 21.195 69.0279 21.1609 68.9574 21.0589C68.9221 21.0249 68.9221 20.6847 68.9574 20.6506C68.9926 20.6166 69.0631 20.6506 69.0984 20.6166C69.3804 20.5146 69.6977 20.5146 70.015 20.4465C70.4733 20.3785 70.8964 20.2764 71.3547 20.2084C72.236 20.0723 73.0821 19.9022 73.9635 19.7661C74.1398 19.8001 74.2808 19.7661 74.4218 19.7321ZM74.9154 16.5682C74.8448 18.6094 71.9893 19.4939 70.6848 17.895C70.0855 17.1465 70.0503 16.1259 70.5791 15.3434C71.1079 14.5609 72.1303 14.2207 73.0821 14.4249C74.1398 14.629 74.9154 15.5135 74.9154 16.5682ZM90.3567 31.5032V23.3043V21.7393C90.3567 21.7053 90.392 21.5352 90.3567 21.5012C90.3214 21.4331 90.1099 21.3991 90.0394 21.3991L89.4048 21.195C89.2991 21.1609 89.0171 21.1269 88.9465 21.0249C88.876 20.9568 88.9113 20.7867 88.9113 20.6847C88.9113 20.4805 88.9818 20.5146 89.1933 20.4805L91.5201 20.0723L93.8469 19.664C93.9879 19.63 94.0937 19.596 94.2347 19.596C94.3052 19.596 94.6577 19.596 94.7282 19.63C94.7635 19.664 94.7282 19.8682 94.7282 19.9362V20.5826C94.7282 20.6847 94.6577 20.9908 94.7282 21.0929C94.7987 21.229 94.9398 21.0929 95.0455 20.9908C95.3628 20.7527 95.6801 20.5486 96.0326 20.3785C97.3018 19.6981 98.8177 19.3919 100.263 19.596C101.25 19.7321 102.061 20.2424 102.414 21.1609C102.66 21.8073 102.696 22.4878 102.696 23.1682V30.9249C102.696 31.061 102.66 31.2991 102.696 31.4352C102.731 31.5713 102.837 31.6053 103.013 31.6733C103.189 31.7754 103.401 31.8774 103.577 31.9795C103.648 32.0135 103.894 32.0816 103.93 32.1836C103.965 32.2517 103.965 32.5919 103.93 32.6259C103.894 32.6939 103.965 32.6259 103.859 32.6599C103.718 32.728 103.401 32.6599 103.225 32.6599H98.1832C97.9716 32.6599 97.1608 32.762 97.055 32.6259C97.0198 32.5919 97.0198 32.2177 97.055 32.1496C97.0903 32.0816 97.3018 32.0135 97.3723 31.9795C97.5838 31.8774 97.7601 31.7754 97.9716 31.6733C98.0421 31.6393 98.2537 31.5713 98.2889 31.5032C98.3242 31.4352 98.2889 31.2991 98.2889 31.2311V30.4826V28.1012V23.5084C98.2889 22.964 98.3242 22.3517 97.9716 21.8754C97.6896 21.4671 97.196 21.3651 96.7025 21.3311C96.3147 21.3311 95.9621 21.3651 95.6096 21.4671C95.4333 21.5352 94.9045 21.6713 94.7987 21.8754C94.7635 21.9434 94.7987 22.0795 94.7987 22.1475V30.9589C94.7987 31.061 94.7635 31.2991 94.7987 31.4012C94.834 31.5372 95.0455 31.5713 95.1513 31.6393C95.3276 31.7414 95.5391 31.8434 95.7154 31.9455C95.7859 31.9795 95.9269 32.0476 95.9621 32.0816C95.9974 32.1156 95.9974 32.5238 95.9621 32.5579C95.9621 32.5919 95.9269 32.5579 95.8916 32.5579C95.7506 32.6259 95.3981 32.5579 95.257 32.5579H89.3343C89.1581 32.5579 89.1228 32.5919 89.0876 32.4898C89.0523 32.4218 89.0523 32.1156 89.0876 32.0475C89.1228 31.9795 89.3343 31.9115 89.4048 31.8774C89.7574 31.8434 90.0394 31.6733 90.3567 31.5032ZM82.8828 25.2434C82.8828 24.3589 82.9181 23.4403 82.8476 22.5218C82.7418 21.5352 82.4598 20.4465 81.2964 20.2424C80.9438 20.1744 80.3093 20.0723 80.0625 20.3445C79.8157 20.5826 79.6394 20.9228 79.4279 21.195L77.6299 23.5424C77.5242 23.6785 77.4184 23.9506 77.2774 24.0187C77.2421 24.0527 76.8896 24.0527 76.8896 24.0187C76.8543 23.9847 76.8896 23.7465 76.8896 23.6785V20.9228C76.8896 20.8207 76.8543 20.6506 76.8896 20.5486C76.9601 20.3785 77.7357 20.2764 77.912 20.2084C78.8991 19.9702 79.9215 19.8001 80.9438 19.7321C82.3893 19.63 84.0109 19.664 85.3506 20.2764C86.4082 20.7527 87.0781 21.6032 87.2543 22.6919C87.3601 23.2362 87.3248 23.8486 87.3248 24.3929V31.197C87.3248 31.2991 87.2543 31.5713 87.3248 31.6393C87.3601 31.6733 87.5364 31.7073 87.5716 31.7073C87.8537 31.7754 88.1004 31.8434 88.3825 31.9115C88.5587 31.9455 88.594 31.9455 88.594 32.1156C88.594 32.2857 88.6292 32.2857 88.4177 32.3537C88.171 32.4558 87.9242 32.5579 87.6774 32.6259C86.373 33.0001 84.3282 33.1022 83.3764 31.9455C83.3059 31.8434 83.0943 31.4012 82.9886 31.3671C82.8476 31.3331 82.4245 31.8774 82.2835 31.9795C81.7194 32.4558 80.9791 32.728 80.2387 32.83C78.8638 33.0001 77.3832 32.728 76.537 31.5713C75.832 30.5847 75.6909 29.0537 76.2198 27.9651C77.1716 25.8898 79.992 25.6857 82.0367 25.3455C82.2835 25.3455 82.5655 25.2774 82.8828 25.2434ZM82.8828 30.8908V25.8558C81.8252 25.9238 80.7323 25.9919 80.3445 27.1146C80.0625 27.863 80.0625 28.7476 80.1682 29.53C80.2387 30.0744 80.3798 30.7548 80.9086 31.095C81.4726 31.4692 82.4245 31.4012 82.8828 30.8908ZM38.2509 25.2434C38.2509 24.3589 38.2862 23.4403 38.2157 22.5218C38.1099 21.5352 37.8279 20.4465 36.6645 20.2424C36.312 20.1744 35.6774 20.0723 35.4306 20.3445C35.1838 20.5826 35.0076 20.9228 34.796 21.195L32.9981 23.5424C32.8923 23.6785 32.7865 23.9506 32.6455 24.0187C32.6103 24.0527 32.2577 24.0527 32.2577 24.0187C32.2225 23.9847 32.2577 23.7465 32.2577 23.6785V20.9568C32.2577 20.8548 32.2225 20.6847 32.2577 20.5826C32.3282 20.4125 33.0686 20.3104 33.2801 20.2424C34.2672 20.0042 35.2896 19.8341 36.2767 19.7661C37.7221 19.664 39.3438 19.6981 40.6835 20.3104C41.7411 20.7867 42.4109 21.6372 42.5872 22.7259C42.693 23.2702 42.6577 23.8826 42.6577 24.4269V31.2311C42.6577 31.3331 42.5872 31.6053 42.6577 31.6733C42.693 31.7073 42.8692 31.7414 42.9045 31.7414C43.1865 31.8094 43.4333 31.8774 43.7154 31.9455C43.8916 31.9795 43.9269 31.9795 43.9269 32.1496C43.9269 32.3197 43.9621 32.3197 43.7506 32.3878C43.5038 32.4898 43.257 32.5919 43.0103 32.6599C41.7059 33.0341 39.6611 33.1362 38.7093 31.9795C38.6387 31.8774 38.4272 31.4352 38.3215 31.4012C38.1804 31.3671 37.7574 31.9115 37.6516 32.0135C37.0876 32.4898 36.3472 32.762 35.6069 32.864C34.232 33.0341 32.7513 32.762 31.9052 31.6053C31.2001 30.6187 31.0591 29.0878 31.5879 27.9991C32.5398 25.9238 35.3601 25.7197 37.3696 25.3795C37.6516 25.3455 37.9337 25.2774 38.2509 25.2434ZM38.2509 30.8908V25.8558C37.1933 25.9238 36.1004 25.9919 35.7126 27.1146C35.4306 27.863 35.4306 28.7476 35.5364 29.53C35.6069 30.0744 35.7479 30.7548 36.2767 31.095C36.8408 31.4692 37.7926 31.4012 38.2509 30.8908Z" fill="#121212"/>
</g>
<defs>
<clipPath id="clip0_58_7458">
<rect width="104" height="33" fill="white"/>
</clipPath>
</defs>
</svg>
