<svg width="84" height="29" viewBox="0 0 84 29" fill="none" xmlns="http://www.w3.org/2000/svg">
<g clip-path="url(#clip0_58_7503)">
<path d="M84 0H0V29H84V0Z" fill="black"/>
<path d="M16.1383 10.7965C15.1428 13.2892 14.5239 13.4334 12.6916 13.4334H12.4147V6.17466H13.858C17.4167 6.17466 18.7894 8.07298 20.0801 11.6795L20.1212 11.8062L22.1184 11.7081V4.21289H3.85352V5.98433L4.05416 5.99024C6.43439 6.08245 6.42247 6.34798 6.42247 7.06921V21.5174C6.42247 22.2385 6.43447 22.5097 4.05416 22.596H3.85352V24.6156H15.2722V22.6652H15.0363C12.4382 22.5731 12.4146 22.3943 12.4146 21.5174V15.3897H12.6915C14.4884 15.3897 15.06 15.5858 16.1382 18.1359L16.1914 18.1824H17.841V10.6407H16.1853L16.1383 10.7965Z" fill="white"/>
<path d="M28.0283 22.8686C26.1841 22.8686 25.489 21.322 25.489 17.1734C25.489 12.8572 26.0192 11.5359 27.7572 11.5359C29.6072 11.5359 30.2905 13.0651 30.2905 17.1734C30.2906 21.4894 29.7429 22.8686 28.0283 22.8686ZM27.9107 9.70703C23.0792 9.70703 20.0742 12.592 20.0742 17.237C20.0742 21.9798 22.9319 24.7034 27.9107 24.7034C32.7241 24.7034 35.7171 21.795 35.7171 17.1098C35.7171 12.4766 32.7948 9.70703 27.9107 9.70703Z" fill="white"/>
<path d="M48.9802 20.1661C47.9666 21.522 46.7293 22.2028 45.2919 22.2028C42.0336 22.2028 41.3501 19.439 41.3501 17.1137C41.3501 13.3689 42.2749 11.4821 44.1016 11.4821C44.7261 11.4821 45.2742 11.7708 45.4983 12.215C45.0682 12.567 44.6556 13.3461 44.6556 14.0213C44.6556 15.4693 45.7099 16.3639 47.407 16.3639C48.9918 16.3639 50.0111 15.2789 50.0111 13.6056C50.0111 11.8053 48.4265 9.71094 43.9486 9.71094C39.076 9.71094 35.9297 12.7343 35.9297 17.4078C35.9297 21.9721 38.8226 24.6957 43.6773 24.6957C46.5409 24.6957 48.7031 23.5299 50.2821 21.1241L50.3882 20.9624L49.1099 19.9872L48.9802 20.1661Z" fill="white"/>
<path d="M65.7887 21.759V9.97079L58.3708 10.1325V11.7711L58.4947 11.7767C60.2976 11.8461 60.368 12.3712 60.368 13.0058V20.755C59.5079 21.1069 59.2076 21.28 58.3591 21.28C57.169 21.28 56.6562 20.5471 56.6562 19.0934V9.9707L49.5215 10.0976V11.7421L49.7572 11.7479C51.407 11.7765 51.5188 12.2441 51.5188 13.0056V19.8722C51.5188 22.8782 53.0387 24.6093 55.8848 24.6093C57.5107 24.6093 58.9424 23.8995 60.3681 22.4974V24.6149H67.7862V22.7282L67.5565 22.7168C66.0245 22.6242 65.7887 22.4454 65.7887 21.759Z" fill="white"/>
<path d="M78.0145 9.79883H80.0647V14.5534H78.0441L77.9675 14.4553C76.3826 12.5455 75.1336 11.6915 73.9137 11.6915C72.8944 11.6915 72.17 12.228 72.17 13.0129C72.17 14.0631 73.2539 14.3689 75.1628 14.8073C77.9791 15.4653 80.595 16.4865 80.595 19.5446C80.595 22.4875 77.9261 24.6163 74.2555 24.6163C73.4602 24.6163 72.4585 24.4318 71.6454 24.1722C70.4669 23.826 70.0959 24.0568 69.819 24.6163H68.0691V19.3138H69.7539L69.8189 19.4407C71.0089 21.3563 72.9178 22.7125 74.4613 22.7125C75.7224 22.7125 76.3648 22.2911 76.3648 21.4487C76.3648 20.4505 75.475 19.8908 72.7295 19.1465C69.6303 18.3042 67.9512 17.3579 67.9512 14.7786C67.9512 11.8128 70.4848 9.81633 74.2555 9.81633C74.9447 9.81633 75.7225 9.96048 76.3943 10.1972C77.4312 10.5603 77.7612 10.3586 78.0145 9.79883Z" fill="white"/>
</g>
<defs>
<clipPath id="clip0_58_7503">
<rect width="84" height="29" fill="white"/>
</clipPath>
</defs>
</svg>
