<svg width="83" height="31" viewBox="0 0 83 31" fill="none" xmlns="http://www.w3.org/2000/svg">
<g clip-path="url(#clip0_58_7512)">
<path d="M23.7644 17.8235C23.7542 23.7432 18.8508 28.2717 13.228 28.2393C7.46652 28.2054 2.757 23.5385 2.77152 17.8106C2.78604 12.0589 7.49193 7.40779 13.2941 7.41211C19.0636 7.41572 23.7636 12.0899 23.7644 17.8243V17.8235ZM13.2825 11.1911C9.59005 11.1839 6.58444 14.152 6.57645 17.8127C6.56847 21.4547 9.56392 24.4545 13.2222 24.4668C16.9226 24.4798 19.9529 21.5131 19.9594 17.8725C19.966 14.1736 16.9923 11.1976 13.2825 11.1911Z" fill="black"/>
<path d="M13.1913 0.0012698C20.9623 -0.0311645 27.7315 4.83687 30.2216 11.8852C30.9832 14.0403 31.3367 16.261 31.2271 18.5386C31.0057 23.1205 29.2902 27.0738 26.0595 30.3663C25.3952 31.0438 24.4805 31.1851 23.7066 30.754C22.6335 30.1558 22.4077 28.7287 23.255 27.8198C23.6412 27.4054 24.0361 26.9989 24.3883 26.5549C25.9491 24.5843 26.9205 22.3608 27.2857 19.8785C28.3014 12.97 24.1494 6.58544 17.7345 4.47288C12.7034 2.81585 7.14735 4.08655 3.36057 7.77469C2.78122 8.33905 2.12129 8.57907 1.33286 8.34121C-0.0290998 7.92966 -0.450176 6.23587 0.553873 5.21238C1.36626 4.38423 2.26722 3.65842 3.23497 3.01622C5.58937 1.45433 8.171 0.493551 10.9813 0.138215C11.7429 0.0416325 12.5059 -0.00882087 13.1913 0.0012698Z" fill="black"/>
<path d="M73.9714 20.5517C73.4139 21.098 72.8766 21.622 72.3416 22.1482C70.9644 23.5025 69.5937 24.8626 68.2099 26.2097C67.2044 27.1885 65.5775 26.8584 65.086 25.5768C64.7999 24.8301 64.9473 24.1461 65.4998 23.5652C65.8664 23.1803 66.2556 22.8163 66.6345 22.4437C68.1272 20.9762 69.6198 19.5087 71.1125 18.0413C71.1531 18.0009 71.1916 17.9584 71.2453 17.9014C71.1909 17.784 71.0863 17.7104 70.9999 17.6254C69.1806 15.8307 67.3576 14.0396 65.539 12.2435C64.8798 11.5926 64.7622 10.6628 65.2268 9.90169C65.8657 8.85587 67.3003 8.68216 68.1961 9.55068C69.0267 10.3558 69.8478 11.1702 70.6725 11.9804C71.7114 13.0017 72.7503 14.0237 73.7892 15.0451C73.8458 15.1013 73.909 15.151 73.983 15.2166C74.5348 14.6753 75.0786 14.1434 75.6209 13.6093C76.9894 12.2636 78.355 10.9136 79.7278 9.57231C80.5801 8.7391 81.8942 8.81839 82.6042 9.73304C83.1422 10.4271 83.1327 11.385 82.573 12.0683C82.4634 12.2016 82.3341 12.3191 82.21 12.4402C80.4306 14.1931 78.6497 15.9446 76.8703 17.6975C76.813 17.7537 76.76 17.8142 76.6888 17.8906C76.8289 18.0326 76.9625 18.1717 77.1005 18.3072C78.8574 20.0335 80.6135 21.7604 82.3726 23.4852C82.6427 23.7504 82.846 24.0531 82.9367 24.4207C83.1415 25.2453 82.7973 26.0756 82.0764 26.5073C81.3548 26.9391 80.4538 26.8591 79.8179 26.2853C79.4657 25.9682 79.1361 25.6266 78.7986 25.2936C77.2907 23.8088 75.7828 22.3233 74.2749 20.8385C74.1841 20.7492 74.0905 20.6641 73.9707 20.551L73.9714 20.5517Z" fill="black"/>
<path d="M44.113 20.72C44.4092 20.1463 44.6793 19.6259 44.9472 19.1048C46.4892 16.1006 48.0305 13.0958 49.5725 10.0916C49.9239 9.40762 50.48 9.01985 51.2582 9.00255C52.6768 8.97012 53.617 10.4008 53.0217 11.6823C52.7981 12.1624 52.5403 12.6273 52.2979 13.0986C50.1446 17.292 47.9847 21.4818 45.8438 25.6817C45.3 26.7484 43.9947 27.0966 43.0393 26.4544C42.7438 26.2554 42.5325 25.9888 42.3713 25.6738C40.9731 22.9457 39.5712 20.2191 38.1707 17.4917C37.2023 15.6055 36.2374 13.7163 35.2646 11.8323C35.0025 11.3248 34.9219 10.8066 35.1208 10.266C35.3931 9.52582 35.9361 9.08976 36.7195 9.01192C37.5333 8.93119 38.178 9.2613 38.5744 9.97774C38.9759 10.7035 39.3403 11.4495 39.7193 12.1883C41.1299 14.9366 42.5398 17.6849 43.9504 20.4324C43.9925 20.5138 44.0404 20.5924 44.113 20.72Z" fill="black"/>
<path d="M60.7978 17.9091C60.7978 20.2019 60.7949 22.4946 60.8 24.7873C60.8014 25.3849 60.6214 25.9038 60.1633 26.2966C59.5535 26.8199 58.8521 26.9367 58.1196 26.608C57.4038 26.2865 57.0139 25.7106 57.0081 24.9171C57.0001 23.823 57.0059 22.7281 57.0059 21.6333C57.0059 18.0619 57.0059 14.4905 57.0059 10.9184C57.0059 10.0809 57.3951 9.47979 58.1588 9.14824C59.3712 8.62137 60.7245 9.47403 60.7927 10.7887C60.7993 10.9148 60.7978 11.0417 60.7978 11.1685C60.7978 13.4152 60.7978 15.6618 60.7978 17.9084V17.9091Z" fill="black"/>
<path d="M16.2752 17.8388C16.2708 19.4851 14.9154 20.8214 13.2572 20.8156C11.5991 20.8098 10.264 19.4692 10.2676 17.8143C10.2712 16.1573 11.607 14.8426 13.2819 14.8477C14.9502 14.8527 16.2803 16.1818 16.2759 17.8396L16.2752 17.8388Z" fill="black"/>
</g>
<defs>
<clipPath id="clip0_58_7512">
<rect width="83" height="31" fill="white"/>
</clipPath>
</defs>
</svg>
