<svg width="184" height="25" viewBox="0 0 184 25" fill="none" xmlns="http://www.w3.org/2000/svg">
<g clip-path="url(#clip0_58_7519)">
<path d="M56.684 18.9933C53.9566 18.9933 52.3574 17.4161 52.3574 14.7416V0.105469H56.4356V14.5005C56.4356 15.2539 56.7668 15.6256 57.5121 15.6256H58.5032V18.9933H56.684ZM129.465 18.9933C126.738 18.9933 125.139 17.4161 125.139 14.7416V0.105469H129.217V14.5005C129.217 15.2539 129.548 15.6256 130.293 15.6256H131.284V18.9933H129.465Z" fill="black"/>
<path d="M71.9713 5.57266H67.8931V12.8555C67.8931 14.7265 66.902 15.5301 65.5797 15.5301C64.2574 15.5301 63.2508 14.7265 63.2508 12.8555V5.57266H59.1856V13.0916C59.1856 16.7808 62.032 19.0008 65.1579 19.0008C66.1568 19.0008 67.6266 18.4985 67.9268 17.5668V18.2549C67.9268 20.3946 66.3741 21.4368 64.6456 21.4368C63.9371 21.4582 63.2345 21.3053 62.6033 20.9922C61.9721 20.6791 61.4328 20.2161 61.0357 19.6462L58.3083 21.9541C59.9619 24.3073 62.6065 24.8949 64.5369 24.8949C69.0291 24.8949 71.9765 22.3283 71.9765 18.0214V5.57266H71.9713ZM6.98675 12.0394C6.98675 7.73492 10.1567 4.73889 14.4548 4.73889C18.753 4.73889 21.9591 7.73492 21.9591 12.0394C21.9591 16.3438 18.7814 19.3423 14.4548 19.3423C10.1282 19.3423 6.98675 16.3463 6.98675 12.0394ZM17.7903 12.0394C17.7903 9.58076 16.3568 8.24221 14.4548 8.24221C12.5529 8.24221 11.1762 9.58076 11.1762 12.0394C11.1762 14.498 12.5813 15.8641 14.4548 15.8641C16.3283 15.8641 17.7903 14.5005 17.7903 12.0394ZM51.0447 13.0288H41.315C41.6203 15.1434 42.8676 15.9972 44.6505 15.9972C46.0556 15.9972 47.1295 15.5427 47.9032 14.4201L50.7186 16.6401C49.3342 18.4583 47.0959 19.3423 44.6505 19.3423C40.2126 19.3423 37.1825 16.4267 37.1825 12.0394C37.1825 7.73492 40.0755 4.73889 44.2365 4.73889C48.2888 4.73889 51.0706 7.7073 51.0706 12.0394C51.0706 12.3332 51.0706 12.735 51.0447 13.0288ZM41.403 10.402H46.9924C46.6353 8.60887 45.6416 7.86049 44.2365 7.86049C42.6839 7.86049 41.729 8.66161 41.39 10.402H41.403ZM175.499 13.0288H165.772C166.075 15.1434 167.325 15.9972 169.108 15.9972C170.513 15.9972 171.587 15.5427 172.358 14.4201L175.168 16.6401C173.792 18.4583 171.564 19.3423 169.108 19.3423C164.67 19.3423 161.64 16.4267 161.64 12.0394C161.64 7.73492 164.533 4.73889 168.694 4.73889C172.744 4.73889 175.528 7.7073 175.528 12.0394C175.528 12.3332 175.528 12.735 175.499 13.0288ZM165.855 10.402H171.45C171.09 8.60887 170.099 7.86049 168.694 7.86049C167.149 7.86802 166.186 8.66914 165.855 10.402ZM131.545 12.0494C131.545 16.1806 134.373 19.3725 138.048 19.3725C140.066 19.3725 141.272 18.486 142.129 17.2253V18.9832H146.204V12.0494C146.204 6.27332 141.725 4.72634 138.959 4.72634C134.231 4.72634 131.545 7.91825 131.545 12.0494ZM135.716 12.0745C135.716 9.60838 137.044 8.2397 138.951 8.2397C140.858 8.2397 142.186 9.60838 142.186 12.0745C142.186 14.5407 140.858 15.8842 138.959 15.8842C137.059 15.8842 135.724 14.5432 135.724 12.0745H135.716ZM184 8.64403H180.879V13.6994C180.879 14.9818 181.402 15.6239 182.447 15.6256H184V18.9933H181.93C178.706 18.9933 176.804 17.0696 176.804 13.8601V0.858871L180.879 0.901564V5.57266H183.984L184 8.64403ZM4.32661 19.0033C1.59919 19.0033 0 17.4337 0 14.7491V0.105469H4.07819V14.5105C4.07819 15.2639 4.40942 15.6331 5.15208 15.6331H6.14575V19.0033H4.32661ZM116.335 4.73387C113.568 4.73387 109.089 6.2909 109.089 12.0569V23.5639H113.152V17.2353C114.008 18.491 115.222 19.38 117.235 19.38C120.91 19.38 123.738 16.1881 123.738 12.0569C123.738 7.92578 121.047 4.73387 116.335 4.73387ZM116.335 15.8943C114.427 15.8943 113.1 14.5532 113.1 12.0846C113.1 9.61592 114.427 8.24975 116.335 8.24975C118.242 8.24975 119.551 9.61592 119.551 12.0846C119.551 14.5532 118.226 15.8943 116.319 15.8943H116.335ZM35.9973 10.6531V18.9933H31.9191V10.8892C31.9191 9.01822 30.9254 8.2171 29.6031 8.2171C28.2808 8.2171 27.2897 9.01822 27.2897 10.8892V18.9933H23.209V10.6531C23.209 6.96143 25.9648 4.7414 29.6031 4.7414C33.2414 4.7414 35.9973 6.95892 35.9973 10.6531ZM160.581 10.6531V18.9933H156.503V10.8892C156.503 9.01822 155.51 8.2171 154.187 8.2171C152.865 8.2171 151.874 9.01822 151.874 10.8892V18.9933H147.796V10.6531C147.796 6.96143 150.549 4.7414 154.187 4.7414C157.826 4.7414 160.581 6.95892 160.581 10.6531ZM90.6001 0.36916C87.6636 0.368302 84.8317 1.42753 82.6554 3.34081C80.4791 5.25409 79.1139 7.8846 78.8254 10.7207C78.5369 13.5567 79.3457 16.3955 81.0945 18.6849C82.8433 20.9743 85.407 22.5505 88.287 23.1069C91.167 23.6633 94.1572 23.1602 96.6761 21.6954C99.195 20.2306 101.062 17.9089 101.915 15.1819C102.768 12.4548 102.545 9.51743 101.289 6.94112C100.034 4.36481 97.8363 2.33378 95.1233 1.24311C93.6894 0.666257 92.1523 0.369285 90.6001 0.36916ZM91.1047 22.3308C90.2665 22.3662 89.4269 22.308 88.6024 22.1576C88.5818 22.1542 88.5633 22.1434 88.5506 22.1274C88.5389 22.112 88.5317 22.0938 88.5299 22.0747C88.5301 22.0545 88.5374 22.035 88.5506 22.0194C88.5633 22.0034 88.5818 21.9927 88.6024 21.9893C89.2985 21.8537 90.657 21.5096 91.7076 20.7562C92.7064 20.038 93.4801 18.8702 92.9031 17.4463C91.5549 14.1188 87.5362 14.9224 86.9462 15.0731H86.9178C86.909 15.0709 86.901 15.0666 86.8945 15.0605C86.8879 15.0549 86.8826 15.0481 86.879 15.0404C86.8778 15.0321 86.8778 15.0236 86.879 15.0153L87.0265 12.5969C87.2852 10.3367 86.7987 9.53807 86.7987 9.53807C85.6084 7.24019 82.9767 7.73241 82.9767 7.73241C82.5337 7.80925 82.1138 7.98082 81.7476 8.23468C80.9068 8.8215 80.3073 9.67826 80.0552 10.6531C80.0498 10.6735 80.0369 10.6913 80.019 10.7033C80.001 10.7157 79.9788 10.7211 79.9569 10.7184C79.9357 10.7148 79.9164 10.704 79.9027 10.6879C79.8889 10.6718 79.8815 10.6514 79.8819 10.6305C79.9221 10.0324 80.0403 9.44173 80.2338 8.87256C81.003 6.33174 82.7302 4.16538 85.0714 2.80501C87.4126 1.44463 90.1959 0.990086 92.8669 1.53191C92.8911 1.53645 92.913 1.54885 92.929 1.56707C92.9458 1.58608 92.9558 1.60988 92.9574 1.63488C92.9577 1.65859 92.9494 1.68166 92.9342 1.70017C92.9198 1.71993 92.8987 1.73416 92.8746 1.74035C92.238 1.89803 91.653 2.20997 91.1745 2.64695C91.1745 2.64695 90.1757 3.40035 90.0592 5.28134C90.0311 5.78044 90.0694 6.28097 90.1731 6.77057L91.1642 11.62C91.2997 12.309 91.7003 12.9223 92.2846 13.3352C92.7496 13.6719 93.3325 13.8172 93.9071 13.7395C93.9071 13.7395 96.0989 13.6416 95.7444 11.5296L95.4856 10.2739C95.483 10.2589 95.483 10.2436 95.4856 10.2287C95.4901 10.2155 95.4962 10.2028 95.5037 10.191C95.5121 10.1792 95.5226 10.169 95.5348 10.1609C95.5476 10.1537 95.5616 10.1486 95.5762 10.1458C96.1946 10.0504 99.1032 9.40748 99.261 5.78361C99.2621 5.76089 99.2702 5.739 99.2843 5.72083C99.2993 5.70331 99.319 5.69025 99.3413 5.68316C99.3632 5.67688 99.3866 5.67688 99.4085 5.68316C99.4297 5.69098 99.4484 5.70396 99.4629 5.72083C100.594 7.2624 101.276 9.07174 101.437 10.9581C101.597 12.8444 101.23 14.7378 100.374 16.4385C99.5185 18.1393 98.2056 19.5844 96.5742 20.6214C94.9427 21.6585 93.0531 22.249 91.1047 22.3308Z" fill="black"/>
</g>
<defs>
<clipPath id="clip0_58_7519">
<rect width="184" height="25" fill="white"/>
</clipPath>
</defs>
</svg>
