<svg width="59" height="104" viewBox="0 0 59 104" fill="none" xmlns="http://www.w3.org/2000/svg">
<g clip-path="url(#clip0_70_1430)">
<mask id="mask0_70_1430" style="mask-type:luminance" maskUnits="userSpaceOnUse" x="0" y="-3" width="59" height="109">
<path d="M58.4309 -3H0V105.817H58.4309V-3Z" fill="white"/>
</mask>
<g mask="url(#mask0_70_1430)">
<path fill-rule="evenodd" clip-rule="evenodd" d="M1.74512 0.56495V41.9641L18.5795 59.0532H55.9009V0.357422H38.4237V42.7516H19.2683V0.651328L1.74512 0.56495Z" fill="white"/>
<path d="M8.14992 89.4392C6.04006 89.4392 4.4313 88.8392 3.32362 87.6392C2.21594 86.4392 1.66211 84.7184 1.66211 82.4766V61.3516H6.0137V82.7931C6.0137 83.7426 6.20489 84.4283 6.5873 84.8502C6.96972 85.2722 7.51697 85.4832 8.22904 85.4832C8.94112 85.4832 9.48837 85.2722 9.87078 84.8502C10.2532 84.4283 10.4444 83.7426 10.4444 82.7931V61.3516H14.6378V82.4766C14.6378 84.7184 14.0839 86.4392 12.9762 87.6392C11.8686 88.8392 10.2598 89.4392 8.14992 89.4392Z" fill="white"/>
<path d="M17.7236 61.3516H23.1829L27.4158 77.9272H27.4949V61.3516H31.3718V89.0436H26.9015L21.6796 68.8284H21.6005V89.0436H17.7236V61.3516Z" fill="white"/>
<path d="M38.9668 61.3516H34.6152V89.0436H38.9668V61.3516Z" fill="white"/>
<path d="M55.0284 91.6141C53.0504 91.6141 51.8373 90.7306 51.3889 88.9636C50.5714 89.2801 49.6087 89.4383 48.5011 89.4383C46.3648 89.4383 44.7297 88.8317 43.5956 87.6186C42.4616 86.4054 41.8945 84.6911 41.8945 82.4758V67.9177C41.8945 65.7023 42.4616 63.988 43.5956 62.7748C44.7297 61.5617 46.3648 60.9551 48.5011 60.9551C50.6373 60.9551 52.2724 61.5617 53.4065 62.7748C54.5405 63.988 55.1076 65.7023 55.1076 67.9177V82.4758C55.1076 84.3219 54.6988 85.8384 53.8812 87.0252C54.0394 87.2889 54.2372 87.4603 54.4746 87.5394C54.7119 87.6186 55.0548 87.6581 55.5032 87.6581H56.1757V91.6141H55.0284ZM48.5011 85.4823C50.0043 85.4823 50.756 84.5724 50.756 82.7527V67.6407C50.756 65.821 50.0043 64.9111 48.5011 64.9111C46.9978 64.9111 46.2461 65.821 46.2461 67.6407V82.7527C46.2461 84.5724 46.9978 85.4823 48.5011 85.4823Z" fill="white"/>
<path d="M8.6138 92.4863H9.99992V103.441H8.6138V92.4863ZM2.99373 103.441H1.60645V92.4863H2.99373V103.441ZM8.73008 98.5556H2.86465V97.2007H8.73008V98.5556Z" fill="white"/>
<path d="M17.338 103.567C16.5926 103.567 15.9019 103.426 15.2669 103.146C14.6332 102.864 14.082 102.471 13.6145 101.967C13.1482 101.461 12.7854 100.869 12.5261 100.191C12.2668 99.5124 12.1377 98.769 12.1377 97.9631C12.1377 97.1572 12.2668 96.4151 12.5261 95.7357C12.7854 95.0576 13.1482 94.4642 13.6168 93.9582C14.0843 93.4522 14.6343 93.0584 15.2658 92.7793C15.8984 92.5002 16.5879 92.3594 17.3356 92.3594C18.0834 92.3594 18.7718 92.4989 19.402 92.7767C20.0311 93.0545 20.5788 93.4457 21.0451 93.9491C21.5115 94.4525 21.8743 95.0458 22.1336 95.7279C22.3929 96.4099 22.522 97.1546 22.522 97.9644C22.522 98.7743 22.3929 99.5189 22.1336 100.201C21.8743 100.882 21.5115 101.474 21.0451 101.977C20.5788 102.481 20.0311 102.872 19.402 103.15C18.7718 103.427 18.0845 103.567 17.338 103.567ZM17.3356 102.173C17.8799 102.173 18.3811 102.068 18.8415 101.858C19.3009 101.65 19.7009 101.354 20.0416 100.973C20.3823 100.592 20.6486 100.147 20.8382 99.6363C21.0289 99.1264 21.1231 98.5669 21.1231 97.9592C21.1231 97.3515 21.0289 96.7946 20.8393 96.2873C20.6509 95.78 20.3846 95.3366 20.0439 94.9545C19.7021 94.5737 19.302 94.2777 18.8415 94.0691C18.3822 93.8591 17.8799 93.7548 17.3356 93.7548C16.7914 93.7548 16.2891 93.8591 15.8263 94.0691C15.3646 94.279 14.9623 94.575 14.6204 94.9558C14.2773 95.3379 14.0111 95.7826 13.8215 96.2912C13.6308 96.7985 13.5366 97.3541 13.5366 97.9592C13.5366 98.563 13.6308 99.1211 13.8203 99.6311C14.0099 100.141 14.2762 100.588 14.6181 100.973C14.9599 101.356 15.3623 101.652 15.8251 101.861C16.2879 102.068 16.7914 102.173 17.3356 102.173Z" fill="white"/>
<path d="M26.4529 103.441V93.8413H23.1074V92.4863H31.1846V93.8413H27.8402V103.441H26.4529Z" fill="white"/>
<path d="M33.9778 97.2137H38.9979V98.5413H33.9778V97.2137ZM34.0953 102.086H39.8002V103.441H32.708V92.4863H39.6026V93.8413H34.0953V102.086Z" fill="white"/>
<path d="M42.0527 103.441V92.4863H43.44V102.086H48.7403V103.441H42.0527Z" fill="white"/>
<path d="M53.0415 103.567C52.2949 103.567 51.5821 103.438 50.903 103.182C50.2239 102.925 49.6902 102.594 49.3018 102.19L49.8157 100.968C50.1855 101.332 50.6588 101.634 51.2367 101.875C51.8147 102.118 52.4147 102.238 53.0392 102.238C53.6043 102.238 54.0636 102.164 54.4172 102.016C54.7695 101.868 55.03 101.665 55.1974 101.409C55.3649 101.153 55.4486 100.867 55.4486 100.55C55.4486 100.17 55.3416 99.8645 55.1265 99.635C54.9102 99.4041 54.6288 99.2203 54.2799 99.082C53.9311 98.9438 53.5462 98.8199 53.1252 98.7143C52.7031 98.6073 52.281 98.4847 51.8589 98.3465C51.4368 98.207 51.0519 98.0283 50.703 97.8066C50.3541 97.5862 50.0727 97.2915 49.8576 96.9237C49.6413 96.5547 49.5343 96.08 49.5343 95.497C49.5343 94.9298 49.6681 94.4081 49.9343 93.9334C50.2018 93.4587 50.6123 93.0779 51.1658 92.791C51.7193 92.5041 52.4252 92.3594 53.2822 92.3594C53.8508 92.3594 54.4137 92.4441 54.9718 92.6137C55.53 92.7832 56.0126 93.0232 56.4219 93.3348L55.9614 94.5763C55.5393 94.2712 55.0951 94.0456 54.6288 93.9034C54.1625 93.76 53.7101 93.6883 53.2729 93.6883C52.7275 93.6883 52.2787 93.7665 51.9263 93.9256C51.574 94.0834 51.3158 94.2934 51.153 94.5529C50.9902 94.8137 50.9088 95.1071 50.9088 95.4331C50.9088 95.8166 51.017 96.1217 51.2321 96.3525C51.4472 96.5821 51.7298 96.7646 52.0775 96.899C52.4263 97.0333 52.8124 97.1559 53.2345 97.2667C53.6566 97.3776 54.0788 97.5001 54.4997 97.6358C54.9218 97.7701 55.3067 97.9462 55.6556 98.1626C56.0033 98.3791 56.2859 98.6712 56.501 99.0377C56.7161 99.4041 56.8243 99.8723 56.8243 100.445C56.8243 101.004 56.6882 101.521 56.4161 101.995C56.144 102.47 55.7288 102.851 55.1683 103.136C54.609 103.423 53.8997 103.567 53.0415 103.567Z" fill="white"/>
</g>
</g>
<defs>
<clipPath id="clip0_70_1430">
<rect width="59" height="104" fill="white"/>
</clipPath>
</defs>
</svg>
