<?xml version="1.0" encoding="UTF-8" standalone="no"?>
<!DOCTYPE svg PUBLIC "-//W3C//DTD SVG 1.1//EN" "http://www.w3.org/Graphics/SVG/1.1/DTD/svg11.dtd">
<svg width="100%" height="100%" viewBox="0 0 59 109" version="1.1" xmlns="http://www.w3.org/2000/svg" xmlns:xlink="http://www.w3.org/1999/xlink" xml:space="preserve" xmlns:serif="http://www.serif.com/" style="fill-rule:evenodd;clip-rule:evenodd;stroke-linejoin:round;stroke-miterlimit:2;">
    <g id="Artboard2" transform="matrix(0.930903,0,0,1,0.0964093,1.09127)">
        <rect x="-0.104" y="-1.091" width="62.768" height="108.817" style="fill:none;"/>
        <g>
            <clipPath id="_clip1">
                <rect x="-0.104" y="-1.091" width="62.768" height="108.817"/>
            </clipPath>
            <g clip-path="url(#_clip1)">
                <g id="Artboard1" transform="matrix(1.0023,0,0,0.933048,-1.78584,-9.1149)">
                    <rect x="2.75" y="10.743" width="145.677" height="65.782" style="fill:none;"/>
                    <g transform="matrix(1,0,0,1,-0.799908,0)">
                        <g transform="matrix(1.20227,0,0,1.20227,-16.5498,-8.19551)">
                            <path d="M17.383,17.147L17.383,54.052L32.39,69.286L65.66,69.286L65.66,16.962L50.08,16.962L50.08,54.754L33.004,54.754L33.004,17.224L17.383,17.147Z"/>
                        </g>
                        <g transform="matrix(3.53323,0,0,3.53323,-248.847,13.4861)">
                            <path d="M73.604,26.657C72.964,26.657 72.476,26.475 72.14,26.111C71.804,25.747 71.636,25.225 71.636,24.545L71.636,18.137L72.956,18.137L72.956,24.641C72.956,24.929 73.014,25.137 73.13,25.265C73.246,25.393 73.412,25.457 73.628,25.457C73.844,25.457 74.01,25.393 74.126,25.265C74.242,25.137 74.3,24.929 74.3,24.641L74.3,18.137L75.572,18.137L75.572,24.545C75.572,25.225 75.404,25.747 75.068,26.111C74.732,26.475 74.244,26.657 73.604,26.657Z" style="fill-rule:nonzero;"/>
                            <path d="M76.508,18.137L78.164,18.137L79.448,23.165L79.472,23.165L79.472,18.137L80.648,18.137L80.648,26.537L79.292,26.537L77.708,20.405L77.684,20.405L77.684,26.537L76.508,26.537L76.508,18.137Z" style="fill-rule:nonzero;"/>
                            <rect x="81.632" y="18.137" width="1.32" height="8.4"/>
                            <path d="M87.824,27.317C87.224,27.317 86.856,27.049 86.72,26.513C86.472,26.609 86.18,26.657 85.844,26.657C85.196,26.657 84.7,26.473 84.356,26.105C84.012,25.737 83.84,25.217 83.84,24.545L83.84,20.129C83.84,19.457 84.012,18.937 84.356,18.569C84.7,18.201 85.196,18.017 85.844,18.017C86.492,18.017 86.988,18.201 87.332,18.569C87.676,18.937 87.848,19.457 87.848,20.129L87.848,24.545C87.848,25.105 87.724,25.565 87.476,25.925C87.524,26.005 87.584,26.057 87.656,26.081C87.728,26.105 87.832,26.117 87.968,26.117L88.172,26.117L88.172,27.317L87.824,27.317ZM85.844,25.457C86.3,25.457 86.528,25.181 86.528,24.629L86.528,20.045C86.528,19.493 86.3,19.217 85.844,19.217C85.388,19.217 85.16,19.493 85.16,20.045L85.16,24.629C85.16,25.181 85.388,25.457 85.844,25.457Z" style="fill-rule:nonzero;"/>
                        </g>
                        <g transform="matrix(1.2463,0,0,1.39768,-54.5154,110.641)">
                            <path d="M53.138,0.211L54.33,0.211L54.33,8.611L53.138,8.611L53.138,0.211ZM48.305,8.611L47.112,8.611L47.112,0.211L48.305,0.211L48.305,8.611ZM53.238,4.865L48.194,4.865L48.194,3.826L53.238,3.826L53.238,4.865Z" style="fill-rule:nonzero;"/>
                            <path d="M60.64,8.708C59.999,8.708 59.405,8.6 58.859,8.385C58.314,8.169 57.84,7.868 57.438,7.481C57.037,7.093 56.725,6.639 56.502,6.119C56.279,5.599 56.168,5.029 56.168,4.411C56.168,3.793 56.279,3.224 56.502,2.703C56.725,2.183 57.037,1.728 57.44,1.34C57.842,0.952 58.315,0.65 58.858,0.436C59.402,0.222 59.995,0.114 60.638,0.114C61.281,0.114 61.873,0.221 62.415,0.434C62.956,0.647 63.427,0.947 63.828,1.333C64.229,1.719 64.541,2.174 64.764,2.697C64.987,3.22 65.098,3.791 65.098,4.412C65.098,5.033 64.987,5.604 64.764,6.127C64.541,6.649 64.229,7.103 63.828,7.489C63.427,7.875 62.956,8.175 62.415,8.388C61.873,8.601 61.282,8.708 60.64,8.708ZM60.638,7.639C61.106,7.639 61.537,7.559 61.933,7.398C62.328,7.238 62.672,7.011 62.965,6.719C63.258,6.427 63.487,6.086 63.65,5.694C63.814,5.303 63.895,4.874 63.895,4.408C63.895,3.942 63.814,3.515 63.651,3.126C63.489,2.737 63.26,2.397 62.967,2.104C62.673,1.812 62.329,1.585 61.933,1.425C61.538,1.264 61.106,1.184 60.638,1.184C60.17,1.184 59.738,1.264 59.34,1.425C58.943,1.586 58.597,1.813 58.303,2.105C58.008,2.398 57.779,2.739 57.616,3.129C57.452,3.518 57.371,3.944 57.371,4.408C57.371,4.871 57.452,5.299 57.615,5.69C57.778,6.081 58.007,6.424 58.301,6.719C58.595,7.013 58.941,7.24 59.339,7.4C59.737,7.559 60.17,7.639 60.638,7.639Z" style="fill-rule:nonzero;"/>
                            <path d="M68.479,8.611L68.479,1.25L65.602,1.25L65.602,0.211L72.548,0.211L72.548,1.25L69.672,1.25L69.672,8.611L68.479,8.611Z" style="fill-rule:nonzero;"/>
                            <path d="M74.95,3.836L79.267,3.836L79.267,4.854L74.95,4.854L74.95,3.836ZM75.051,7.572L79.957,7.572L79.957,8.611L73.858,8.611L73.858,0.211L79.787,0.211L79.787,1.25L75.051,1.25L75.051,7.572Z" style="fill-rule:nonzero;"/>
                            <path d="M81.894,8.611L81.894,0.211L83.087,0.211L83.087,7.572L87.645,7.572L87.645,8.611L81.894,8.611Z" style="fill-rule:nonzero;"/>
                            <path d="M91.344,8.708C90.702,8.708 90.089,8.609 89.505,8.413C88.921,8.216 88.462,7.962 88.128,7.652L88.57,6.715C88.888,6.994 89.295,7.226 89.792,7.411C90.289,7.597 90.805,7.689 91.342,7.689C91.828,7.689 92.223,7.632 92.527,7.519C92.83,7.405 93.054,7.25 93.198,7.053C93.342,6.857 93.414,6.638 93.414,6.395C93.414,6.103 93.322,5.869 93.137,5.693C92.951,5.516 92.709,5.375 92.409,5.269C92.109,5.163 91.778,5.068 91.416,4.987C91.053,4.905 90.69,4.811 90.327,4.705C89.964,4.598 89.633,4.461 89.333,4.291C89.033,4.122 88.791,3.896 88.606,3.614C88.42,3.331 88.328,2.967 88.328,2.52C88.328,2.085 88.443,1.685 88.672,1.321C88.902,0.957 89.255,0.665 89.731,0.445C90.207,0.225 90.814,0.114 91.551,0.114C92.04,0.114 92.524,0.179 93.004,0.309C93.484,0.439 93.899,0.623 94.251,0.862L93.855,1.814C93.492,1.58 93.11,1.407 92.709,1.298C92.308,1.188 91.919,1.133 91.543,1.133C91.074,1.133 90.688,1.193 90.385,1.315C90.082,1.436 89.86,1.597 89.72,1.796C89.58,1.996 89.51,2.221 89.51,2.471C89.51,2.765 89.603,2.999 89.788,3.176C89.973,3.352 90.216,3.492 90.515,3.595C90.815,3.698 91.147,3.792 91.51,3.877C91.873,3.962 92.236,4.056 92.598,4.16C92.961,4.263 93.292,4.398 93.592,4.564C93.891,4.73 94.134,4.954 94.319,5.235C94.504,5.516 94.597,5.875 94.597,6.314C94.597,6.743 94.48,7.139 94.246,7.503C94.012,7.867 93.655,8.159 93.173,8.378C92.692,8.598 92.082,8.708 91.344,8.708Z" style="fill-rule:nonzero;"/>
                        </g>
                    </g>
                </g>
            </g>
        </g>
        <g transform="matrix(-1.01358,-1.15551e-16,1.30144e-16,-0.989274,21.558,106.106)">
            <path d="M1.124,45.65L0.954,62.893L19.541,62.833L1.499,45.629L1.124,45.65Z" style="fill:rgb(20,20,20);"/>
        </g>
    </g>
</svg>
